<svg width="20" height="18" viewBox="0 0 20 18" fill="none" xmlns="http://www.w3.org/2000/svg">
<path fill-rule="evenodd" clip-rule="evenodd" d="M16.75 7.5C16.75 7.91421 16.4142 8.25 16 8.25H12.25C11.8358 8.25 11.5 7.91421 11.5 7.5C11.5 7.08579 11.8358 6.75 12.25 6.75H16C16.4142 6.75 16.75 7.08579 16.75 7.5ZM16 9.75H12.25C11.8358 9.75 11.5 10.0858 11.5 10.5C11.5 10.9142 11.8358 11.25 12.25 11.25H16C16.4142 11.25 16.75 10.9142 16.75 10.5C16.75 10.0858 16.4142 9.75 16 9.75ZM19.75 2.25V15.75C19.75 16.5784 19.0784 17.25 18.25 17.25H1.75C0.921573 17.25 0.25 16.5784 0.25 15.75V2.25C0.25 1.42157 0.921573 0.75 1.75 0.75H18.25C19.0784 0.75 19.75 1.42157 19.75 2.25ZM18.25 15.75V2.25H1.75V15.75H18.25ZM10.7256 12.5625C10.8292 12.9638 10.5878 13.373 10.1866 13.4766C9.78529 13.5801 9.37605 13.3388 9.2725 12.9375C9.02594 11.9756 8.04813 11.25 6.99906 11.25C5.95 11.25 4.97312 11.9756 4.72563 12.9375C4.62207 13.3388 4.21283 13.5801 3.81156 13.4766C3.41029 13.373 3.16895 12.9638 3.2725 12.5625C3.51588 11.6566 4.09118 10.8755 4.88406 10.3744C4.02237 9.51779 3.76242 8.22604 4.22572 7.10283C4.68901 5.97961 5.78405 5.24675 6.99906 5.24675C8.21407 5.24675 9.30911 5.97961 9.77241 7.10283C10.2357 8.22604 9.97576 9.51779 9.11406 10.3744C9.90781 10.8748 10.4836 11.6562 10.7266 12.5625H10.7256ZM7 9.75C7.82843 9.75 8.5 9.07843 8.5 8.25C8.5 7.42157 7.82843 6.75 7 6.75C6.17157 6.75 5.5 7.42157 5.5 8.25C5.5 9.07843 6.17157 9.75 7 9.75Z" fill="url(#paint0_linear_1138_2143)"/>
<defs>
<linearGradient id="paint0_linear_1138_2143" x1="-2" y1="9" x2="22" y2="9" gradientUnits="userSpaceOnUse">
<stop stop-color="#DF5770"/>
<stop offset="1" stop-color="#DF5770"/>
</linearGradient>
</defs>
</svg>
