<svg width="26" height="22" viewBox="0 0 26 22" fill="none" xmlns="http://www.w3.org/2000/svg">
<path fill-rule="evenodd" clip-rule="evenodd" d="M15.6563 20.9649C15.3788 21.1699 15.0775 21.3399 14.7463 21.4274C13.8138 21.6774 12.795 21.3049 11.905 21.0549C5.93875 19.3762 1.9425 16.7474 0.796254 12.8249C-0.118746 9.69245 0.761255 6.55495 2.69625 4.60495C4.48875 2.7987 7.14625 2.0662 9.87251 3.23995C11.6475 0.859948 14.3163 0.164948 16.7713 0.833698C19.4213 1.55495 21.7513 3.83245 22.525 7.00245C22.6767 7.62411 22.7529 8.25703 22.7538 8.9012C23.0738 9.06536 23.3738 9.26536 23.6538 9.5012C25.1 10.7249 25.8725 12.8037 25.4413 14.9649C24.8913 17.7224 22.335 19.6587 18.6788 21.0412C18.0525 21.2787 17.3675 21.5724 16.6838 21.4524C16.3038 21.3849 15.9638 21.1899 15.6563 20.9649ZM3.19625 12.1237C2.5275 9.83245 3.2 7.64745 4.47125 6.3662C5.69125 5.1362 7.5 4.6787 9.5 5.8487C10.1988 6.25745 11.1 6.01495 11.5 5.3137C12.6475 3.29995 14.4425 2.7912 16.1138 3.2462C17.8563 3.7212 19.5313 5.2762 20.0963 7.59495C20.1654 7.87328 20.2113 8.1587 20.2338 8.4512C19.7758 8.50978 19.3292 8.6366 18.9088 8.82745C17.5663 7.5187 15.7888 7.2612 14.2213 7.8387C12.4438 8.49245 11.0063 10.1824 10.6713 12.3612C10.33 14.5924 11.3838 16.7674 13.345 18.8587C13.0975 18.7962 12.8413 18.7212 12.5825 18.6487C6.79376 17.0199 3.9575 14.7299 3.19625 12.1237ZM13.1438 12.7399C13.3438 11.4274 14.1925 10.5137 15.085 10.1837C15.91 9.8812 16.8263 10.0399 17.5225 11.0462C17.6263 11.1961 17.7588 11.324 17.9123 11.4224C18.0659 11.5208 18.2374 11.5878 18.417 11.6196C18.5965 11.6513 18.7806 11.6471 18.9586 11.6073C19.1366 11.5674 19.3048 11.4927 19.4538 11.3874C20.4538 10.6787 21.3688 10.8437 22.0388 11.4099C22.7663 12.0249 23.2488 13.1749 22.9888 14.4762C22.7075 15.8887 21.2788 17.3862 17.795 18.7024C17.5738 18.7862 17.3538 18.8762 17.1263 18.9424C16.935 18.8012 16.7588 18.6424 16.5788 18.4887C13.7563 16.0599 12.925 14.1637 13.1438 12.7387V12.7399Z" fill="white"/>
</svg>
