<svg width="25" height="26" viewBox="0 0 25 26" fill="none" xmlns="http://www.w3.org/2000/svg">
<path d="M9.87251 3.24129C11.6475 0.861291 14.3163 0.166291 16.7713 0.835041C19.4213 1.55629 21.7513 3.83254 22.525 7.00254C22.565 7.16504 22.5996 7.32754 22.6288 7.49004C21.5118 7.09204 20.2969 7.06138 19.1613 7.40254C17.5525 6.21254 15.56 6.01254 13.7888 6.66504C11.57 7.48379 9.8375 9.56004 9.43625 12.1725C8.92375 15.5175 10.9613 18.5225 13.8425 21.0775L14.3275 21.4975C13.9363 21.525 13.5388 21.4638 13.1588 21.3825C12.9635 21.3405 12.7693 21.2939 12.5763 21.2425L11.905 21.055C5.9375 19.3763 1.9425 16.75 0.796254 12.825C-0.118746 9.69254 0.761255 6.55629 2.69625 4.60629C4.48875 2.80004 7.14625 2.06754 9.87251 3.24129ZM11.9075 12.5513C12.4425 9.06129 16.4788 7.34129 18.5513 10.3363C18.5711 10.3641 18.6011 10.383 18.6348 10.3889C18.6685 10.3947 18.7032 10.3871 18.7313 10.3675C21.7025 8.26254 24.9063 11.2588 24.215 14.7213C23.815 16.7296 21.9525 18.3963 18.6275 19.7213L18.0838 19.9338L17.755 20.0688C17.4713 20.18 17.1713 20.2688 16.9 20.2213C16.63 20.1738 16.3788 19.9863 16.15 19.7863L15.7625 19.4363C12.8708 16.948 11.5858 14.653 11.9075 12.5513Z" fill="white"/>
</svg>
