<svg width="226" height="67" viewBox="0 0 226 67" fill="none" xmlns="http://www.w3.org/2000/svg">
<path d="M23.75 18.8906C26.25 19.125 28.2578 19.7109 29.7734 20.6484C31.2891 21.5703 32.3828 22.75 33.0547 24.1875C33.7266 25.625 34.0625 27.1953 34.0625 28.8984C34.0625 30.7578 33.5234 32.4531 32.4453 33.9844C31.3672 35.5 29.8906 36.7188 28.0156 37.6406C26.1562 38.5469 24.0391 39 21.6641 39L1.53125 38.9766V38.8828C2.3125 38.8828 2.97656 38.6094 3.52344 38.0625C4.07031 37.5156 4.34375 36.8594 4.34375 36.0938V3.63281C4.34375 2.85156 4.07031 2.1875 3.52344 1.64062C2.97656 1.09375 2.3125 0.820312 1.53125 0.820312V0.726562H19.8125C21.9219 0.726562 23.7422 1.14844 25.2734 1.99219C26.8047 2.83594 27.9844 3.96875 28.8125 5.39062C29.6406 6.8125 30.0547 8.38281 30.0547 10.1016C30.0547 12.1172 29.5156 13.9141 28.4375 15.4922C27.375 17.0703 25.8125 18.2031 23.75 18.8906ZM8.70312 3.63281V18.7969H16.8594C18.8281 18.7969 20.4609 18.375 21.7578 17.5312C23.0703 16.6719 24.0469 15.5859 24.6875 14.2734C25.3438 12.9609 25.6719 11.5703 25.6719 10.1016C25.6719 8.61719 25.3438 7.21875 24.6875 5.90625C24.0312 4.59375 23.0469 3.51562 21.7344 2.67188C20.4375 1.8125 18.8125 1.38281 16.8594 1.38281H8.72656C8.72656 1.69531 8.71875 2.01562 8.70312 2.34375C8.70312 2.70312 8.70312 3.13281 8.70312 3.63281ZM19.625 38.3438C21.5312 38.3438 23.1562 38 24.5 37.3125C25.8594 36.625 26.9453 35.7266 27.7578 34.6172C28.5859 33.4922 29.1328 32.2578 29.3984 30.9141C29.6797 29.5703 29.6797 28.2344 29.3984 26.9062C29.1328 25.5625 28.5859 24.3281 27.7578 23.2031C26.9453 22.0781 25.8594 21.1719 24.5 20.4844C23.1562 19.7969 21.5312 19.4531 19.625 19.4531H8.70312C8.70312 19.4531 8.70312 20.3828 8.70312 22.2422C8.70312 24.0859 8.70312 26.2109 8.70312 28.6172C8.71875 31.0234 8.72656 33.2031 8.72656 35.1562C8.72656 37.0938 8.72656 38.1562 8.72656 38.3438H19.625ZM60.0078 35.8125C60.0078 36.7188 60.1562 37.2734 60.4531 37.4766C60.7656 37.6797 61.1484 37.6953 61.6016 37.5234C62.0703 37.3516 62.5547 37.125 63.0547 36.8438C62.5547 37.5156 61.8984 38.0469 61.0859 38.4375C60.2891 38.8281 59.4688 39.0234 58.625 39.0234C57.7812 39.0234 57.0625 38.7734 56.4688 38.2734C55.8906 37.7734 55.6016 36.9531 55.6016 35.8125V34.3828C54.9609 35.3047 54 36.2266 52.7188 37.1484C51.4375 38.0547 49.8359 38.6484 47.9141 38.9297C47.2266 39.0234 46.5547 39.0703 45.8984 39.0703C43.0703 39.0703 40.8047 38.2656 39.1016 36.6562C37.6172 35.1562 36.9922 33.2812 37.2266 31.0312C37.2578 30.3281 37.5938 29.4609 38.2344 28.4297C38.875 27.3828 40.0078 26.4297 41.6328 25.5703C43.2734 24.7109 45.6094 24.2031 48.6406 24.0469C50.2188 24 51.5781 24.0703 52.7188 24.2578C53.8594 24.4297 54.8203 24.6562 55.6016 24.9375V21.7969C55.6016 20.4531 55.3438 19.1484 54.8281 17.8828C54.3125 16.6172 53.5703 15.5781 52.6016 14.7656C51.6484 13.9531 50.5156 13.5469 49.2031 13.5469C47.9688 13.5469 46.9453 13.7656 46.1328 14.2031C45.3203 14.6406 44.6562 15.1875 44.1406 15.8438C43.6406 16.4844 43.25 17.1328 42.9688 17.7891C42.7031 18.4453 42.5078 19.0078 42.3828 19.4766C42.1016 20.2266 41.6172 20.6016 40.9297 20.6016C40.5078 20.6016 40.1484 20.4531 39.8516 20.1562C39.5547 19.8594 39.4062 19.5 39.4062 19.0781C39.4062 18.8594 39.4453 18.6562 39.5234 18.4688C39.6641 17.9531 39.9141 17.375 40.2734 16.7344C40.6328 16.0781 41.1641 15.4531 41.8672 14.8594C42.5703 14.2656 43.5156 13.7734 44.7031 13.3828C45.8906 12.9922 47.4062 12.7969 49.25 12.7969C51.2812 12.7969 52.9844 13.0469 54.3594 13.5469C55.7344 14.0469 56.8359 14.7188 57.6641 15.5625C58.5078 16.4062 59.1094 17.3672 59.4688 18.4453C59.8281 19.5234 60.0078 20.6406 60.0078 21.7969V35.8125ZM47.8438 38.2734C50 37.9141 51.7266 37.1875 53.0234 36.0938C54.3203 34.9844 55.1797 34.0078 55.6016 33.1641V25.5938C54.6016 25.25 53.4688 24.9922 52.2031 24.8203C50.9531 24.6328 49.7422 24.5938 48.5703 24.7031C46.4922 24.9531 44.9688 25.5234 44 26.4141C43.0312 27.2891 42.4062 28.2266 42.125 29.2266C41.8438 30.2109 41.6953 31 41.6797 31.5938C41.6641 31.7031 41.6562 31.7969 41.6562 31.875C41.5625 32.5938 41.6641 33.5 41.9609 34.5938C42.2578 35.6719 42.8672 36.6094 43.7891 37.4062C44.7109 38.1875 46.0625 38.4766 47.8438 38.2734ZM83.9609 13.1484C81.3984 13.1484 79.125 13.8984 77.1406 15.3984C75.1719 16.8984 73.8047 18.8359 73.0391 21.2109C73.0391 23.3828 73.0391 25.6016 73.0391 27.8672C73.0391 30.1328 73.0391 32.0391 73.0391 33.5859C73.0391 35.1328 73.0391 35.9688 73.0391 36.0938C73.0391 36.875 73.3125 37.5391 73.8594 38.0859C74.4062 38.6172 75.0703 38.8828 75.8516 38.8828V38.9766H65.8906V38.8828C66.6562 38.8828 67.3125 38.6172 67.8594 38.0859C68.4062 37.5391 68.6797 36.875 68.6797 36.0938C68.6797 36.0938 68.6797 35.3438 68.6797 33.8438C68.6797 32.3281 68.6797 30.4531 68.6797 28.2188C68.6797 25.9844 68.6797 23.7422 68.6797 21.4922C68.6797 19.2422 68.6797 17.3203 68.6797 15.7266C68.6797 14.9453 68.4062 14.2812 67.8594 13.7344C67.3125 13.1875 66.6562 12.9141 65.8906 12.9141V12.8203H69.6641C70.6016 12.8203 71.3984 13.1562 72.0547 13.8281C72.7109 14.4844 73.0391 15.2812 73.0391 16.2188C73.0391 17.1094 73.0391 18.1719 73.0391 19.4062C74.0391 17.3281 75.5078 15.6562 77.4453 14.3906C79.3828 13.125 81.5547 12.4922 83.9609 12.4922H84.125C86.0312 12.4922 87.7344 12.9063 89.2344 13.7344C90.7344 14.5469 91.9141 15.6875 92.7734 17.1562C93.6328 18.625 94.0625 20.3203 94.0625 22.2422V36.0938C94.0625 36.875 94.3359 37.5391 94.8828 38.0859C95.4297 38.6172 96.0859 38.8828 96.8516 38.8828V38.9766H86.9141V38.8828C87.6484 38.8828 88.2734 38.6406 88.7891 38.1562C89.3203 37.6719 89.6172 37.0547 89.6797 36.3047V22.2422C89.6797 20.6797 89.4688 19.2031 89.0469 17.8125C88.6406 16.4219 88.0234 15.2969 87.1953 14.4375C86.3672 13.5781 85.3438 13.1484 84.125 13.1484H83.9609ZM121.086 35.6484C120.477 36.2109 119.82 36.7188 119.117 37.1719C116.883 38.5781 114.484 39.2812 111.922 39.2812C109.453 39.2812 107.203 38.6797 105.172 37.4766C103.156 36.2578 101.539 34.6406 100.32 32.625C99.1172 30.5938 98.5156 28.3516 98.5156 25.8984C98.5156 23.4297 99.1172 21.1875 100.32 19.1719C101.539 17.1406 103.156 15.5234 105.172 14.3203C107.203 13.1016 109.453 12.4922 111.922 12.4922C115.391 12.4922 118.445 13.7031 121.086 16.125V4.10156C121.086 3.17969 121.414 2.39062 122.07 1.73438C122.727 1.0625 123.523 0.726562 124.461 0.726562H128.234V0.820312C127.469 0.820312 126.812 1.09375 126.266 1.64062C125.719 2.1875 125.445 2.85156 125.445 3.63281V33.3281V35.7891C125.445 36.6953 125.602 37.25 125.914 37.4531C126.227 37.6562 126.617 37.6719 127.086 37.5C127.555 37.3281 128.039 37.0938 128.539 36.7969C128.039 37.4688 127.383 38 126.57 38.3906C125.758 38.7812 124.93 38.9766 124.086 38.9766C123.258 38.9766 122.547 38.7266 121.953 38.2266C121.375 37.7266 121.086 36.9141 121.086 35.7891V35.6484ZM111.922 13.1484C110.328 13.1484 108.93 13.6484 107.727 14.6484C106.523 15.6328 105.539 16.9297 104.773 18.5391C104.008 20.1328 103.492 21.875 103.227 23.7656C102.961 25.6406 102.969 27.5 103.25 29.3438C103.531 31.1875 104.109 32.8438 104.984 34.3125C105.859 35.7812 107.055 36.8984 108.57 37.6641C110.102 38.4297 111.977 38.6797 114.195 38.4141C116.898 37.9922 119.195 36.7734 121.086 34.7578V33.3281V17.0625C118.492 14.4531 115.438 13.1484 111.922 13.1484ZM159.547 36.0938C159.547 36.875 159.82 37.5391 160.367 38.0859C160.914 38.6172 161.57 38.8828 162.336 38.8828V38.9766H152.398V38.8828C153.133 38.8828 153.758 38.6406 154.273 38.1562C154.805 37.6719 155.109 37.0547 155.188 36.3047V22.2422C155.188 20.6797 154.977 19.2031 154.555 17.8125C154.133 16.4219 153.508 15.2969 152.68 14.4375C151.852 13.5781 150.828 13.1484 149.609 13.1484H149.445C146.883 13.1484 144.609 13.8984 142.625 15.3984C140.656 16.8984 139.289 18.8359 138.523 21.2109C138.523 25.0547 138.523 28.4297 138.523 31.3359C138.523 34.2266 138.523 35.8125 138.523 36.0938C138.523 36.875 138.797 37.5391 139.344 38.0859C139.891 38.6172 140.555 38.8828 141.336 38.8828V38.9766H131.375V38.8828C132.141 38.8828 132.797 38.6172 133.344 38.0859C133.891 37.5391 134.164 36.875 134.164 36.0938C134.164 36.0938 134.164 34.7422 134.164 32.0391C134.164 29.3359 134.164 26.0781 134.164 22.2656C134.164 18.4531 134.164 14.8281 134.164 11.3906C134.164 7.9375 134.164 5.34375 134.164 3.60938C134.164 2.82813 133.891 2.17188 133.344 1.64062C132.797 1.09375 132.141 0.820312 131.375 0.820312V0.726562H135.148C136.086 0.726562 136.883 1.05469 137.539 1.71094C138.195 2.36719 138.523 3.16406 138.523 4.10156C138.523 5.36719 138.523 7.39844 138.523 10.1953C138.523 12.9766 138.523 16.0469 138.523 19.4062C139.539 17.3281 141.008 15.6562 142.93 14.3906C144.867 13.125 147.039 12.4922 149.445 12.4922H149.609C151.516 12.4922 153.219 12.9063 154.719 13.7344C156.219 14.5469 157.398 15.6875 158.258 17.1562C159.117 18.625 159.547 20.3203 159.547 22.2422V36.0938ZM183.242 13.1484C180.68 13.1484 178.406 13.8984 176.422 15.3984C174.453 16.8984 173.086 18.8359 172.32 21.2109C172.32 23.3828 172.32 25.6016 172.32 27.8672C172.32 30.1328 172.32 32.0391 172.32 33.5859C172.32 35.1328 172.32 35.9688 172.32 36.0938C172.32 36.875 172.594 37.5391 173.141 38.0859C173.688 38.6172 174.352 38.8828 175.133 38.8828V38.9766H165.172V38.8828C165.938 38.8828 166.594 38.6172 167.141 38.0859C167.688 37.5391 167.961 36.875 167.961 36.0938C167.961 36.0938 167.961 35.3438 167.961 33.8438C167.961 32.3281 167.961 30.4531 167.961 28.2188C167.961 25.9844 167.961 23.7422 167.961 21.4922C167.961 19.2422 167.961 17.3203 167.961 15.7266C167.961 14.9453 167.688 14.2812 167.141 13.7344C166.594 13.1875 165.938 12.9141 165.172 12.9141V12.8203H168.945C169.883 12.8203 170.68 13.1562 171.336 13.8281C171.992 14.4844 172.32 15.2812 172.32 16.2188C172.32 17.1094 172.32 18.1719 172.32 19.4062C173.32 17.3281 174.789 15.6562 176.727 14.3906C178.664 13.125 180.836 12.4922 183.242 12.4922H183.406C185.312 12.4922 187.016 12.9063 188.516 13.7344C190.016 14.5469 191.195 15.6875 192.055 17.1562C192.914 18.625 193.344 20.3203 193.344 22.2422V36.0938C193.344 36.875 193.617 37.5391 194.164 38.0859C194.711 38.6172 195.367 38.8828 196.133 38.8828V38.9766H186.195V38.8828C186.93 38.8828 187.555 38.6406 188.07 38.1562C188.602 37.6719 188.898 37.0547 188.961 36.3047V22.2422C188.961 20.6797 188.75 19.2031 188.328 17.8125C187.922 16.4219 187.305 15.2969 186.477 14.4375C185.648 13.5781 184.625 13.1484 183.406 13.1484H183.242ZM221.398 35.8125C221.398 36.7188 221.547 37.2734 221.844 37.4766C222.156 37.6797 222.539 37.6953 222.992 37.5234C223.461 37.3516 223.945 37.125 224.445 36.8438C223.945 37.5156 223.289 38.0469 222.477 38.4375C221.68 38.8281 220.859 39.0234 220.016 39.0234C219.172 39.0234 218.453 38.7734 217.859 38.2734C217.281 37.7734 216.992 36.9531 216.992 35.8125V34.3828C216.352 35.3047 215.391 36.2266 214.109 37.1484C212.828 38.0547 211.227 38.6484 209.305 38.9297C208.617 39.0234 207.945 39.0703 207.289 39.0703C204.461 39.0703 202.195 38.2656 200.492 36.6562C199.008 35.1562 198.383 33.2812 198.617 31.0312C198.648 30.3281 198.984 29.4609 199.625 28.4297C200.266 27.3828 201.398 26.4297 203.023 25.5703C204.664 24.7109 207 24.2031 210.031 24.0469C211.609 24 212.969 24.0703 214.109 24.2578C215.25 24.4297 216.211 24.6562 216.992 24.9375V21.7969C216.992 20.4531 216.734 19.1484 216.219 17.8828C215.703 16.6172 214.961 15.5781 213.992 14.7656C213.039 13.9531 211.906 13.5469 210.594 13.5469C209.359 13.5469 208.336 13.7656 207.523 14.2031C206.711 14.6406 206.047 15.1875 205.531 15.8438C205.031 16.4844 204.641 17.1328 204.359 17.7891C204.094 18.4453 203.898 19.0078 203.773 19.4766C203.492 20.2266 203.008 20.6016 202.32 20.6016C201.898 20.6016 201.539 20.4531 201.242 20.1562C200.945 19.8594 200.797 19.5 200.797 19.0781C200.797 18.8594 200.836 18.6562 200.914 18.4688C201.055 17.9531 201.305 17.375 201.664 16.7344C202.023 16.0781 202.555 15.4531 203.258 14.8594C203.961 14.2656 204.906 13.7734 206.094 13.3828C207.281 12.9922 208.797 12.7969 210.641 12.7969C212.672 12.7969 214.375 13.0469 215.75 13.5469C217.125 14.0469 218.227 14.7188 219.055 15.5625C219.898 16.4062 220.5 17.3672 220.859 18.4453C221.219 19.5234 221.398 20.6406 221.398 21.7969V35.8125ZM209.234 38.2734C211.391 37.9141 213.117 37.1875 214.414 36.0938C215.711 34.9844 216.57 34.0078 216.992 33.1641V25.5938C215.992 25.25 214.859 24.9922 213.594 24.8203C212.344 24.6328 211.133 24.5938 209.961 24.7031C207.883 24.9531 206.359 25.5234 205.391 26.4141C204.422 27.2891 203.797 28.2266 203.516 29.2266C203.234 30.2109 203.086 31 203.07 31.5938C203.055 31.7031 203.047 31.7969 203.047 31.875C202.953 32.5938 203.055 33.5 203.352 34.5938C203.648 35.6719 204.258 36.6094 205.18 37.4062C206.102 38.1875 207.453 38.4766 209.234 38.2734Z" fill="white"/>
<path d="M72.1014 58.688C72.1014 59.024 72.0921 59.276 72.0734 59.444H65.5074C65.5261 60.1253 65.6754 60.6993 65.9554 61.166C66.2354 61.6327 66.6041 61.9827 67.0614 62.216C67.5188 62.4493 68.0181 62.566 68.5594 62.566C69.3061 62.566 69.9314 62.384 70.4354 62.02C70.9394 61.6467 71.2568 61.1427 71.3874 60.508H72.0454C71.8961 61.2827 71.5134 61.9127 70.8974 62.398C70.2814 62.874 69.5021 63.112 68.5594 63.112C67.8501 63.112 67.2154 62.9533 66.6554 62.636C66.0954 62.3187 65.6568 61.866 65.3394 61.278C65.0221 60.6807 64.8634 59.9853 64.8634 59.192C64.8634 58.3987 65.0174 57.708 65.3254 57.12C65.6428 56.532 66.0814 56.084 66.6414 55.776C67.2014 55.4587 67.8408 55.3 68.5594 55.3C69.2874 55.3 69.9174 55.4587 70.4494 55.776C70.9908 56.084 71.4014 56.4993 71.6814 57.022C71.9614 57.5353 72.1014 58.0907 72.1014 58.688ZM71.4714 58.926C71.4994 58.254 71.3781 57.6847 71.1074 57.218C70.8461 56.7513 70.4868 56.406 70.0294 56.182C69.5721 55.9487 69.0774 55.832 68.5454 55.832C68.0134 55.832 67.5188 55.9487 67.0614 56.182C66.6134 56.406 66.2448 56.7513 65.9554 57.218C65.6754 57.6847 65.5261 58.254 65.5074 58.926H71.4714ZM77.9534 63L74.6354 59.514V63H74.0054V52.64H74.6354V58.842L77.8974 55.398H78.7794L75.0974 59.178L78.8214 63H77.9534ZM83.6759 59.192C83.6759 58.408 83.8299 57.722 84.1379 57.134C84.4553 56.546 84.8893 56.0933 85.4399 55.776C85.9999 55.4587 86.6346 55.3 87.3439 55.3C88.1466 55.3 88.8279 55.496 89.3879 55.888C89.9479 56.28 90.3399 56.7793 90.5639 57.386V55.398H91.1939V63H90.5639V60.998C90.3399 61.614 89.9433 62.1227 89.3739 62.524C88.8139 62.916 88.1373 63.112 87.3439 63.112C86.6346 63.112 85.9999 62.9533 85.4399 62.636C84.8893 62.3093 84.4553 61.852 84.1379 61.264C83.8299 60.6667 83.6759 59.976 83.6759 59.192ZM90.5639 59.192C90.5639 58.5293 90.4239 57.946 90.1439 57.442C89.8733 56.9287 89.4999 56.5367 89.0239 56.266C88.5479 55.986 88.0159 55.846 87.4279 55.846C86.8119 55.846 86.2706 55.9813 85.8039 56.252C85.3373 56.5133 84.9733 56.896 84.7119 57.4C84.4506 57.904 84.3199 58.5013 84.3199 59.192C84.3199 59.8827 84.4506 60.48 84.7119 60.984C84.9733 61.488 85.3373 61.8753 85.8039 62.146C86.2799 62.4167 86.8213 62.552 87.4279 62.552C88.0159 62.552 88.5479 62.4167 89.0239 62.146C89.5093 61.866 89.8873 61.474 90.1579 60.97C90.4286 60.4567 90.5639 59.864 90.5639 59.192ZM94.4258 55.944V60.97C94.4258 61.53 94.5285 61.9173 94.7338 62.132C94.9392 62.3373 95.3032 62.44 95.8258 62.44H96.6798V63H95.7278C95.0652 63 94.5752 62.846 94.2578 62.538C93.9498 62.2207 93.7958 61.698 93.7958 60.97V55.944H92.6478V55.398H93.7958V53.466H94.4258V55.398H96.6798V55.944H94.4258ZM101.687 63.112C100.978 63.112 100.339 62.9533 99.7694 62.636C99.2 62.3187 98.752 61.866 98.4254 61.278C98.108 60.6807 97.9494 59.9853 97.9494 59.192C97.9494 58.408 98.1127 57.722 98.4394 57.134C98.766 56.5367 99.214 56.084 99.7834 55.776C100.362 55.4587 101.006 55.3 101.715 55.3C102.425 55.3 103.064 55.4587 103.633 55.776C104.203 56.084 104.646 56.532 104.963 57.12C105.29 57.708 105.453 58.3987 105.453 59.192C105.453 59.9853 105.29 60.6807 104.963 61.278C104.637 61.866 104.184 62.3187 103.605 62.636C103.036 62.9533 102.397 63.112 101.687 63.112ZM101.687 62.552C102.238 62.552 102.751 62.4307 103.227 62.188C103.713 61.936 104.1 61.558 104.389 61.054C104.679 60.55 104.823 59.9293 104.823 59.192C104.823 58.464 104.679 57.848 104.389 57.344C104.1 56.84 103.717 56.4667 103.241 56.224C102.765 55.972 102.252 55.846 101.701 55.846C101.151 55.846 100.637 55.972 100.161 56.224C99.6947 56.4667 99.3167 56.84 99.0274 57.344C98.738 57.848 98.5934 58.464 98.5934 59.192C98.5934 59.9293 98.7334 60.55 99.0134 61.054C99.3027 61.558 99.6807 61.936 100.147 62.188C100.623 62.4307 101.137 62.552 101.687 62.552ZM110.711 63.112C110.001 63.112 109.362 62.9533 108.793 62.636C108.223 62.3187 107.775 61.866 107.449 61.278C107.131 60.6807 106.973 59.9853 106.973 59.192C106.973 58.408 107.136 57.722 107.463 57.134C107.789 56.5367 108.237 56.084 108.807 55.776C109.385 55.4587 110.029 55.3 110.739 55.3C111.448 55.3 112.087 55.4587 112.657 55.776C113.226 56.084 113.669 56.532 113.987 57.12C114.313 57.708 114.477 58.3987 114.477 59.192C114.477 59.9853 114.313 60.6807 113.987 61.278C113.66 61.866 113.207 62.3187 112.629 62.636C112.059 62.9533 111.42 63.112 110.711 63.112ZM110.711 62.552C111.261 62.552 111.775 62.4307 112.251 62.188C112.736 61.936 113.123 61.558 113.413 61.054C113.702 60.55 113.847 59.9293 113.847 59.192C113.847 58.464 113.702 57.848 113.413 57.344C113.123 56.84 112.741 56.4667 112.265 56.224C111.789 55.972 111.275 55.846 110.725 55.846C110.174 55.846 109.661 55.972 109.185 56.224C108.718 56.4667 108.34 56.84 108.051 57.344C107.761 57.848 107.617 58.464 107.617 59.192C107.617 59.9293 107.757 60.55 108.037 61.054C108.326 61.558 108.704 61.936 109.171 62.188C109.647 62.4307 110.16 62.552 110.711 62.552ZM117.326 55.944V60.97C117.326 61.53 117.429 61.9173 117.634 62.132C117.84 62.3373 118.204 62.44 118.726 62.44H119.58V63H118.628C117.966 63 117.476 62.846 117.158 62.538C116.85 62.2207 116.696 61.698 116.696 60.97V55.944H115.548V55.398H116.696V53.466H117.326V55.398H119.58V55.944H117.326ZM125.823 57.4C126.056 56.784 126.453 56.28 127.013 55.888C127.573 55.496 128.25 55.3 129.043 55.3C129.752 55.3 130.382 55.4587 130.933 55.776C131.493 56.0933 131.927 56.546 132.235 57.134C132.552 57.722 132.711 58.408 132.711 59.192C132.711 59.976 132.552 60.6667 132.235 61.264C131.927 61.852 131.493 62.3093 130.933 62.636C130.382 62.9533 129.752 63.112 129.043 63.112C128.25 63.112 127.568 62.916 126.999 62.524C126.439 62.132 126.047 61.628 125.823 61.012V63H125.193V52.64H125.823V57.4ZM132.067 59.192C132.067 58.5013 131.936 57.904 131.675 57.4C131.414 56.896 131.045 56.5133 130.569 56.252C130.102 55.9813 129.561 55.846 128.945 55.846C128.357 55.846 127.825 55.986 127.349 56.266C126.873 56.5367 126.5 56.9287 126.229 57.442C125.958 57.946 125.823 58.5293 125.823 59.192C125.823 59.864 125.958 60.4567 126.229 60.97C126.5 61.474 126.873 61.866 127.349 62.146C127.825 62.4167 128.357 62.552 128.945 62.552C129.561 62.552 130.102 62.4167 130.569 62.146C131.045 61.8753 131.414 61.488 131.675 60.984C131.936 60.48 132.067 59.8827 132.067 59.192ZM134.221 59.192C134.221 58.408 134.375 57.722 134.683 57.134C135 56.546 135.434 56.0933 135.985 55.776C136.545 55.4587 137.18 55.3 137.889 55.3C138.692 55.3 139.373 55.496 139.933 55.888C140.493 56.28 140.885 56.7793 141.109 57.386V55.398H141.739V63H141.109V60.998C140.885 61.614 140.488 62.1227 139.919 62.524C139.359 62.916 138.682 63.112 137.889 63.112C137.18 63.112 136.545 62.9533 135.985 62.636C135.434 62.3093 135 61.852 134.683 61.264C134.375 60.6667 134.221 59.976 134.221 59.192ZM141.109 59.192C141.109 58.5293 140.969 57.946 140.689 57.442C140.418 56.9287 140.045 56.5367 139.569 56.266C139.093 55.986 138.561 55.846 137.973 55.846C137.357 55.846 136.816 55.9813 136.349 56.252C135.882 56.5133 135.518 56.896 135.257 57.4C134.996 57.904 134.865 58.5013 134.865 59.192C134.865 59.8827 134.996 60.48 135.257 60.984C135.518 61.488 135.882 61.8753 136.349 62.146C136.825 62.4167 137.366 62.552 137.973 62.552C138.561 62.552 139.093 62.4167 139.569 62.146C140.054 61.866 140.432 61.474 140.703 60.97C140.974 60.4567 141.109 59.864 141.109 59.192ZM147.463 55.244C148.368 55.244 149.105 55.524 149.675 56.084C150.244 56.6347 150.529 57.456 150.529 58.548V63H149.913V58.59C149.913 57.6847 149.684 56.994 149.227 56.518C148.769 56.0327 148.149 55.79 147.365 55.79C146.543 55.79 145.885 56.0513 145.391 56.574C144.905 57.0967 144.663 57.8713 144.663 58.898V63H144.033V55.398H144.663V57.008C144.877 56.4387 145.232 56.0047 145.727 55.706C146.231 55.398 146.809 55.244 147.463 55.244ZM152.363 59.192C152.363 58.408 152.517 57.722 152.825 57.134C153.143 56.546 153.577 56.0933 154.127 55.776C154.687 55.4587 155.322 55.3 156.031 55.3C156.806 55.3 157.478 55.496 158.047 55.888C158.617 56.2707 159.018 56.77 159.251 57.386V52.64H159.881V63H159.251V60.984C159.027 61.6093 158.635 62.1227 158.075 62.524C157.515 62.916 156.834 63.112 156.031 63.112C155.322 63.112 154.687 62.9533 154.127 62.636C153.577 62.3093 153.143 61.852 152.825 61.264C152.517 60.6667 152.363 59.976 152.363 59.192ZM159.251 59.192C159.251 58.5293 159.111 57.946 158.831 57.442C158.561 56.9287 158.187 56.5367 157.711 56.266C157.235 55.986 156.703 55.846 156.115 55.846C155.499 55.846 154.958 55.9813 154.491 56.252C154.025 56.5133 153.661 56.896 153.399 57.4C153.138 57.904 153.007 58.5013 153.007 59.192C153.007 59.8827 153.138 60.48 153.399 60.984C153.661 61.488 154.025 61.8753 154.491 62.146C154.967 62.4167 155.509 62.552 156.115 62.552C156.703 62.552 157.235 62.4167 157.711 62.146C158.197 61.866 158.575 61.474 158.845 60.97C159.116 60.4567 159.251 59.864 159.251 59.192ZM165.619 55.244C166.515 55.244 167.248 55.524 167.817 56.084C168.387 56.6347 168.671 57.456 168.671 58.548V63H168.055V58.59C168.055 57.6847 167.827 56.994 167.369 56.518C166.912 56.0327 166.291 55.79 165.507 55.79C164.686 55.79 164.028 56.0513 163.533 56.574C163.048 57.0967 162.805 57.8713 162.805 58.898V63H162.175V52.64H162.805V57.008C163.02 56.4387 163.379 56.0047 163.883 55.706C164.387 55.398 164.966 55.244 165.619 55.244ZM170.506 59.192C170.506 58.408 170.66 57.722 170.968 57.134C171.285 56.546 171.719 56.0933 172.27 55.776C172.83 55.4587 173.465 55.3 174.174 55.3C174.977 55.3 175.658 55.496 176.218 55.888C176.778 56.28 177.17 56.7793 177.394 57.386V55.398H178.024V63H177.394V60.998C177.17 61.614 176.773 62.1227 176.204 62.524C175.644 62.916 174.967 63.112 174.174 63.112C173.465 63.112 172.83 62.9533 172.27 62.636C171.719 62.3093 171.285 61.852 170.968 61.264C170.66 60.6667 170.506 59.976 170.506 59.192ZM177.394 59.192C177.394 58.5293 177.254 57.946 176.974 57.442C176.703 56.9287 176.33 56.5367 175.854 56.266C175.378 55.986 174.846 55.846 174.258 55.846C173.642 55.846 173.101 55.9813 172.634 56.252C172.167 56.5133 171.803 56.896 171.542 57.4C171.281 57.904 171.15 58.5013 171.15 59.192C171.15 59.8827 171.281 60.48 171.542 60.984C171.803 61.488 172.167 61.8753 172.634 62.146C173.11 62.4167 173.651 62.552 174.258 62.552C174.846 62.552 175.378 62.4167 175.854 62.146C176.339 61.866 176.717 61.474 176.988 60.97C177.259 60.4567 177.394 59.864 177.394 59.192ZM183.748 55.244C184.653 55.244 185.391 55.524 185.96 56.084C186.529 56.6347 186.814 57.456 186.814 58.548V63H186.198V58.59C186.198 57.6847 185.969 56.994 185.512 56.518C185.055 56.0327 184.434 55.79 183.65 55.79C182.829 55.79 182.171 56.0513 181.676 56.574C181.191 57.0967 180.948 57.8713 180.948 58.898V63H180.318V55.398H180.948V57.008C181.163 56.4387 181.517 56.0047 182.012 55.706C182.516 55.398 183.095 55.244 183.748 55.244Z" fill="white"/>
</svg>
