<svg width="497" height="644" viewBox="0 0 497 644" fill="none" xmlns="http://www.w3.org/2000/svg">
<path d="M497 534.791L497 101.266H443.08C448.707 79.5568 407.915 76.777 386.816 78.1007C387.988 70.8201 376.266 42.3597 317.658 35.741C270.771 30.446 251.235 9.70746 247.328 0C242.639 9.70746 220.602 30.446 169.965 35.741C119.327 41.036 107.449 66.187 107.84 78.1007C50.4033 70.8201 50.4033 97.9569 51.5755 98.6188C52.5132 99.1483 17.5826 100.604 0 101.266L0 534.13L51.5755 538.763C47.8245 562.59 85.1777 563.252 104.323 560.604C100.416 572.959 107.136 599.522 165.276 606.935C223.416 614.348 244.202 634.734 247.328 644C249.281 635.396 268.192 615.937 328.208 606.935C388.223 597.934 394.631 572.297 390.333 560.604C436.282 568.547 446.987 549.353 446.597 538.763L497 534.791Z" fill="url(#paint0_linear_1138_1759)"/>
<defs>
<linearGradient id="paint0_linear_1138_1759" x1="248.5" y1="0" x2="248.5" y2="644" gradientUnits="userSpaceOnUse">
<stop stop-color="#F01299"/>
<stop offset="1" stop-color="#FE8DA1"/>
</linearGradient>
</defs>
</svg>
