<svg width="16" height="16" viewBox="0 0 16 16" fill="none" xmlns="http://www.w3.org/2000/svg">
<path d="M3.5 4.33344H2.66667C2.22464 4.33344 1.80072 4.50903 1.48816 4.82159C1.17559 5.13415 1 5.55807 1 6.0001V13.5001C1 13.9421 1.17559 14.3661 1.48816 14.6786C1.80072 14.9912 2.22464 15.1668 2.66667 15.1668H10.1667C10.6087 15.1668 11.0326 14.9912 11.3452 14.6786C11.6577 14.3661 11.8333 13.9421 11.8333 13.5001V12.6668" stroke="black" stroke-width="1.66667" stroke-linecap="round" stroke-linejoin="round"/>
<path d="M11.0003 2.66676L13.5003 5.16676M14.6545 3.98759C14.9827 3.65938 15.1671 3.21424 15.1671 2.75009C15.1671 2.28594 14.9827 1.84079 14.6545 1.51259C14.3263 1.18438 13.8811 1 13.417 1C12.9528 1 12.5077 1.18438 12.1795 1.51259L5.16699 8.50009V11.0001H7.66699L14.6545 3.98759Z" stroke="black" stroke-width="1.66667" stroke-linecap="round" stroke-linejoin="round"/>
</svg>
