<svg width="285" height="80" viewBox="0 0 285 80" fill="none" xmlns="http://www.w3.org/2000/svg">
<path d="M23.75 31.8906C26.25 32.125 28.2578 32.7109 29.7734 33.6484C31.2891 34.5703 32.3828 35.75 33.0547 37.1875C33.7266 38.625 34.0625 40.1953 34.0625 41.8984C34.0625 43.7578 33.5234 45.4531 32.4453 46.9844C31.3672 48.5 29.8906 49.7188 28.0156 50.6406C26.1562 51.5469 24.0391 52 21.6641 52L1.53125 51.9766V51.8828C2.3125 51.8828 2.97656 51.6094 3.52344 51.0625C4.07031 50.5156 4.34375 49.8594 4.34375 49.0938V16.6328C4.34375 15.8516 4.07031 15.1875 3.52344 14.6406C2.97656 14.0938 2.3125 13.8203 1.53125 13.8203V13.7266H19.8125C21.9219 13.7266 23.7422 14.1484 25.2734 14.9922C26.8047 15.8359 27.9844 16.9688 28.8125 18.3906C29.6406 19.8125 30.0547 21.3828 30.0547 23.1016C30.0547 25.1172 29.5156 26.9141 28.4375 28.4922C27.375 30.0703 25.8125 31.2031 23.75 31.8906ZM8.70312 16.6328V31.7969H16.8594C18.8281 31.7969 20.4609 31.375 21.7578 30.5312C23.0703 29.6719 24.0469 28.5859 24.6875 27.2734C25.3438 25.9609 25.6719 24.5703 25.6719 23.1016C25.6719 21.6172 25.3438 20.2188 24.6875 18.9062C24.0312 17.5938 23.0469 16.5156 21.7344 15.6719C20.4375 14.8125 18.8125 14.3828 16.8594 14.3828H8.72656C8.72656 14.6953 8.71875 15.0156 8.70312 15.3438C8.70312 15.7031 8.70312 16.1328 8.70312 16.6328ZM19.625 51.3438C21.5312 51.3438 23.1562 51 24.5 50.3125C25.8594 49.625 26.9453 48.7266 27.7578 47.6172C28.5859 46.4922 29.1328 45.2578 29.3984 43.9141C29.6797 42.5703 29.6797 41.2344 29.3984 39.9062C29.1328 38.5625 28.5859 37.3281 27.7578 36.2031C26.9453 35.0781 25.8594 34.1719 24.5 33.4844C23.1562 32.7969 21.5312 32.4531 19.625 32.4531H8.70312C8.70312 32.4531 8.70312 33.3828 8.70312 35.2422C8.70312 37.0859 8.70312 39.2109 8.70312 41.6172C8.71875 44.0234 8.72656 46.2031 8.72656 48.1562C8.72656 50.0938 8.72656 51.1562 8.72656 51.3438H19.625ZM60.0078 48.8125C60.0078 49.7188 60.1562 50.2734 60.4531 50.4766C60.7656 50.6797 61.1484 50.6953 61.6016 50.5234C62.0703 50.3516 62.5547 50.125 63.0547 49.8438C62.5547 50.5156 61.8984 51.0469 61.0859 51.4375C60.2891 51.8281 59.4688 52.0234 58.625 52.0234C57.7812 52.0234 57.0625 51.7734 56.4688 51.2734C55.8906 50.7734 55.6016 49.9531 55.6016 48.8125V47.3828C54.9609 48.3047 54 49.2266 52.7188 50.1484C51.4375 51.0547 49.8359 51.6484 47.9141 51.9297C47.2266 52.0234 46.5547 52.0703 45.8984 52.0703C43.0703 52.0703 40.8047 51.2656 39.1016 49.6562C37.6172 48.1562 36.9922 46.2812 37.2266 44.0312C37.2578 43.3281 37.5938 42.4609 38.2344 41.4297C38.875 40.3828 40.0078 39.4297 41.6328 38.5703C43.2734 37.7109 45.6094 37.2031 48.6406 37.0469C50.2188 37 51.5781 37.0703 52.7188 37.2578C53.8594 37.4297 54.8203 37.6562 55.6016 37.9375V34.7969C55.6016 33.4531 55.3438 32.1484 54.8281 30.8828C54.3125 29.6172 53.5703 28.5781 52.6016 27.7656C51.6484 26.9531 50.5156 26.5469 49.2031 26.5469C47.9688 26.5469 46.9453 26.7656 46.1328 27.2031C45.3203 27.6406 44.6562 28.1875 44.1406 28.8438C43.6406 29.4844 43.25 30.1328 42.9688 30.7891C42.7031 31.4453 42.5078 32.0078 42.3828 32.4766C42.1016 33.2266 41.6172 33.6016 40.9297 33.6016C40.5078 33.6016 40.1484 33.4531 39.8516 33.1562C39.5547 32.8594 39.4062 32.5 39.4062 32.0781C39.4062 31.8594 39.4453 31.6562 39.5234 31.4688C39.6641 30.9531 39.9141 30.375 40.2734 29.7344C40.6328 29.0781 41.1641 28.4531 41.8672 27.8594C42.5703 27.2656 43.5156 26.7734 44.7031 26.3828C45.8906 25.9922 47.4062 25.7969 49.25 25.7969C51.2812 25.7969 52.9844 26.0469 54.3594 26.5469C55.7344 27.0469 56.8359 27.7188 57.6641 28.5625C58.5078 29.4062 59.1094 30.3672 59.4688 31.4453C59.8281 32.5234 60.0078 33.6406 60.0078 34.7969V48.8125ZM47.8438 51.2734C50 50.9141 51.7266 50.1875 53.0234 49.0938C54.3203 47.9844 55.1797 47.0078 55.6016 46.1641V38.5938C54.6016 38.25 53.4688 37.9922 52.2031 37.8203C50.9531 37.6328 49.7422 37.5938 48.5703 37.7031C46.4922 37.9531 44.9688 38.5234 44 39.4141C43.0312 40.2891 42.4062 41.2266 42.125 42.2266C41.8438 43.2109 41.6953 44 41.6797 44.5938C41.6641 44.7031 41.6562 44.7969 41.6562 44.875C41.5625 45.5938 41.6641 46.5 41.9609 47.5938C42.2578 48.6719 42.8672 49.6094 43.7891 50.4062C44.7109 51.1875 46.0625 51.4766 47.8438 51.2734ZM83.9609 26.1484C81.3984 26.1484 79.125 26.8984 77.1406 28.3984C75.1719 29.8984 73.8047 31.8359 73.0391 34.2109C73.0391 36.3828 73.0391 38.6016 73.0391 40.8672C73.0391 43.1328 73.0391 45.0391 73.0391 46.5859C73.0391 48.1328 73.0391 48.9688 73.0391 49.0938C73.0391 49.875 73.3125 50.5391 73.8594 51.0859C74.4062 51.6172 75.0703 51.8828 75.8516 51.8828V51.9766H65.8906V51.8828C66.6562 51.8828 67.3125 51.6172 67.8594 51.0859C68.4062 50.5391 68.6797 49.875 68.6797 49.0938C68.6797 49.0938 68.6797 48.3438 68.6797 46.8438C68.6797 45.3281 68.6797 43.4531 68.6797 41.2188C68.6797 38.9844 68.6797 36.7422 68.6797 34.4922C68.6797 32.2422 68.6797 30.3203 68.6797 28.7266C68.6797 27.9453 68.4062 27.2812 67.8594 26.7344C67.3125 26.1875 66.6562 25.9141 65.8906 25.9141V25.8203H69.6641C70.6016 25.8203 71.3984 26.1562 72.0547 26.8281C72.7109 27.4844 73.0391 28.2812 73.0391 29.2188C73.0391 30.1094 73.0391 31.1719 73.0391 32.4062C74.0391 30.3281 75.5078 28.6562 77.4453 27.3906C79.3828 26.125 81.5547 25.4922 83.9609 25.4922H84.125C86.0312 25.4922 87.7344 25.9062 89.2344 26.7344C90.7344 27.5469 91.9141 28.6875 92.7734 30.1562C93.6328 31.625 94.0625 33.3203 94.0625 35.2422V49.0938C94.0625 49.875 94.3359 50.5391 94.8828 51.0859C95.4297 51.6172 96.0859 51.8828 96.8516 51.8828V51.9766H86.9141V51.8828C87.6484 51.8828 88.2734 51.6406 88.7891 51.1562C89.3203 50.6719 89.6172 50.0547 89.6797 49.3047V35.2422C89.6797 33.6797 89.4688 32.2031 89.0469 30.8125C88.6406 29.4219 88.0234 28.2969 87.1953 27.4375C86.3672 26.5781 85.3438 26.1484 84.125 26.1484H83.9609ZM121.086 48.6484C120.477 49.2109 119.82 49.7188 119.117 50.1719C116.883 51.5781 114.484 52.2812 111.922 52.2812C109.453 52.2812 107.203 51.6797 105.172 50.4766C103.156 49.2578 101.539 47.6406 100.32 45.625C99.1172 43.5938 98.5156 41.3516 98.5156 38.8984C98.5156 36.4297 99.1172 34.1875 100.32 32.1719C101.539 30.1406 103.156 28.5234 105.172 27.3203C107.203 26.1016 109.453 25.4922 111.922 25.4922C115.391 25.4922 118.445 26.7031 121.086 29.125V17.1016C121.086 16.1797 121.414 15.3906 122.07 14.7344C122.727 14.0625 123.523 13.7266 124.461 13.7266H128.234V13.8203C127.469 13.8203 126.812 14.0938 126.266 14.6406C125.719 15.1875 125.445 15.8516 125.445 16.6328V46.3281V48.7891C125.445 49.6953 125.602 50.25 125.914 50.4531C126.227 50.6562 126.617 50.6719 127.086 50.5C127.555 50.3281 128.039 50.0938 128.539 49.7969C128.039 50.4688 127.383 51 126.57 51.3906C125.758 51.7812 124.93 51.9766 124.086 51.9766C123.258 51.9766 122.547 51.7266 121.953 51.2266C121.375 50.7266 121.086 49.9141 121.086 48.7891V48.6484ZM111.922 26.1484C110.328 26.1484 108.93 26.6484 107.727 27.6484C106.523 28.6328 105.539 29.9297 104.773 31.5391C104.008 33.1328 103.492 34.875 103.227 36.7656C102.961 38.6406 102.969 40.5 103.25 42.3438C103.531 44.1875 104.109 45.8438 104.984 47.3125C105.859 48.7812 107.055 49.8984 108.57 50.6641C110.102 51.4297 111.977 51.6797 114.195 51.4141C116.898 50.9922 119.195 49.7734 121.086 47.7578V46.3281V30.0625C118.492 27.4531 115.438 26.1484 111.922 26.1484ZM159.547 49.0938C159.547 49.875 159.82 50.5391 160.367 51.0859C160.914 51.6172 161.57 51.8828 162.336 51.8828V51.9766H152.398V51.8828C153.133 51.8828 153.758 51.6406 154.273 51.1562C154.805 50.6719 155.109 50.0547 155.188 49.3047V35.2422C155.188 33.6797 154.977 32.2031 154.555 30.8125C154.133 29.4219 153.508 28.2969 152.68 27.4375C151.852 26.5781 150.828 26.1484 149.609 26.1484H149.445C146.883 26.1484 144.609 26.8984 142.625 28.3984C140.656 29.8984 139.289 31.8359 138.523 34.2109C138.523 38.0547 138.523 41.4297 138.523 44.3359C138.523 47.2266 138.523 48.8125 138.523 49.0938C138.523 49.875 138.797 50.5391 139.344 51.0859C139.891 51.6172 140.555 51.8828 141.336 51.8828V51.9766H131.375V51.8828C132.141 51.8828 132.797 51.6172 133.344 51.0859C133.891 50.5391 134.164 49.875 134.164 49.0938C134.164 49.0938 134.164 47.7422 134.164 45.0391C134.164 42.3359 134.164 39.0781 134.164 35.2656C134.164 31.4531 134.164 27.8281 134.164 24.3906C134.164 20.9375 134.164 18.3438 134.164 16.6094C134.164 15.8281 133.891 15.1719 133.344 14.6406C132.797 14.0938 132.141 13.8203 131.375 13.8203V13.7266H135.148C136.086 13.7266 136.883 14.0547 137.539 14.7109C138.195 15.3672 138.523 16.1641 138.523 17.1016C138.523 18.3672 138.523 20.3984 138.523 23.1953C138.523 25.9766 138.523 29.0469 138.523 32.4062C139.539 30.3281 141.008 28.6562 142.93 27.3906C144.867 26.125 147.039 25.4922 149.445 25.4922H149.609C151.516 25.4922 153.219 25.9062 154.719 26.7344C156.219 27.5469 157.398 28.6875 158.258 30.1562C159.117 31.625 159.547 33.3203 159.547 35.2422V49.0938ZM183.242 26.1484C180.68 26.1484 178.406 26.8984 176.422 28.3984C174.453 29.8984 173.086 31.8359 172.32 34.2109C172.32 36.3828 172.32 38.6016 172.32 40.8672C172.32 43.1328 172.32 45.0391 172.32 46.5859C172.32 48.1328 172.32 48.9688 172.32 49.0938C172.32 49.875 172.594 50.5391 173.141 51.0859C173.688 51.6172 174.352 51.8828 175.133 51.8828V51.9766H165.172V51.8828C165.938 51.8828 166.594 51.6172 167.141 51.0859C167.688 50.5391 167.961 49.875 167.961 49.0938C167.961 49.0938 167.961 48.3438 167.961 46.8438C167.961 45.3281 167.961 43.4531 167.961 41.2188C167.961 38.9844 167.961 36.7422 167.961 34.4922C167.961 32.2422 167.961 30.3203 167.961 28.7266C167.961 27.9453 167.688 27.2812 167.141 26.7344C166.594 26.1875 165.938 25.9141 165.172 25.9141V25.8203H168.945C169.883 25.8203 170.68 26.1562 171.336 26.8281C171.992 27.4844 172.32 28.2812 172.32 29.2188C172.32 30.1094 172.32 31.1719 172.32 32.4062C173.32 30.3281 174.789 28.6562 176.727 27.3906C178.664 26.125 180.836 25.4922 183.242 25.4922H183.406C185.312 25.4922 187.016 25.9062 188.516 26.7344C190.016 27.5469 191.195 28.6875 192.055 30.1562C192.914 31.625 193.344 33.3203 193.344 35.2422V49.0938C193.344 49.875 193.617 50.5391 194.164 51.0859C194.711 51.6172 195.367 51.8828 196.133 51.8828V51.9766H186.195V51.8828C186.93 51.8828 187.555 51.6406 188.07 51.1562C188.602 50.6719 188.898 50.0547 188.961 49.3047V35.2422C188.961 33.6797 188.75 32.2031 188.328 30.8125C187.922 29.4219 187.305 28.2969 186.477 27.4375C185.648 26.5781 184.625 26.1484 183.406 26.1484H183.242ZM221.398 48.8125C221.398 49.7188 221.547 50.2734 221.844 50.4766C222.156 50.6797 222.539 50.6953 222.992 50.5234C223.461 50.3516 223.945 50.125 224.445 49.8438C223.945 50.5156 223.289 51.0469 222.477 51.4375C221.68 51.8281 220.859 52.0234 220.016 52.0234C219.172 52.0234 218.453 51.7734 217.859 51.2734C217.281 50.7734 216.992 49.9531 216.992 48.8125V47.3828C216.352 48.3047 215.391 49.2266 214.109 50.1484C212.828 51.0547 211.227 51.6484 209.305 51.9297C208.617 52.0234 207.945 52.0703 207.289 52.0703C204.461 52.0703 202.195 51.2656 200.492 49.6562C199.008 48.1562 198.383 46.2812 198.617 44.0312C198.648 43.3281 198.984 42.4609 199.625 41.4297C200.266 40.3828 201.398 39.4297 203.023 38.5703C204.664 37.7109 207 37.2031 210.031 37.0469C211.609 37 212.969 37.0703 214.109 37.2578C215.25 37.4297 216.211 37.6562 216.992 37.9375V34.7969C216.992 33.4531 216.734 32.1484 216.219 30.8828C215.703 29.6172 214.961 28.5781 213.992 27.7656C213.039 26.9531 211.906 26.5469 210.594 26.5469C209.359 26.5469 208.336 26.7656 207.523 27.2031C206.711 27.6406 206.047 28.1875 205.531 28.8438C205.031 29.4844 204.641 30.1328 204.359 30.7891C204.094 31.4453 203.898 32.0078 203.773 32.4766C203.492 33.2266 203.008 33.6016 202.32 33.6016C201.898 33.6016 201.539 33.4531 201.242 33.1562C200.945 32.8594 200.797 32.5 200.797 32.0781C200.797 31.8594 200.836 31.6562 200.914 31.4688C201.055 30.9531 201.305 30.375 201.664 29.7344C202.023 29.0781 202.555 28.4531 203.258 27.8594C203.961 27.2656 204.906 26.7734 206.094 26.3828C207.281 25.9922 208.797 25.7969 210.641 25.7969C212.672 25.7969 214.375 26.0469 215.75 26.5469C217.125 27.0469 218.227 27.7188 219.055 28.5625C219.898 29.4062 220.5 30.3672 220.859 31.4453C221.219 32.5234 221.398 33.6406 221.398 34.7969V48.8125ZM209.234 51.2734C211.391 50.9141 213.117 50.1875 214.414 49.0938C215.711 47.9844 216.57 47.0078 216.992 46.1641V38.5938C215.992 38.25 214.859 37.9922 213.594 37.8203C212.344 37.6328 211.133 37.5938 209.961 37.7031C207.883 37.9531 206.359 38.5234 205.391 39.4141C204.422 40.2891 203.797 41.2266 203.516 42.2266C203.234 43.2109 203.086 44 203.07 44.5938C203.055 44.7031 203.047 44.7969 203.047 44.875C202.953 45.5938 203.055 46.5 203.352 47.5938C203.648 48.6719 204.258 49.6094 205.18 50.4062C206.102 51.1875 207.453 51.4766 209.234 51.2734Z" fill="white"/>
<path d="M263.729 18.2144C263.74 18.2132 263.751 18.2114 263.761 18.2102C263.729 18.2262 263.712 18.2322 263.729 18.2144Z" fill="white"/>
<path d="M228.263 22.3215C228.73 22.449 228.857 22.4063 228.857 22.4063C237.596 21.2186 238.875 29.1718 241.836 36.3799C243.762 41.0702 245.861 43.2872 250.911 44.1676C254.531 44.7989 259.304 44.9715 261.834 47.9396C264.233 50.7552 265.271 54.396 266.396 57.8387C266.672 58.6847 266.985 61.1906 268.272 61.257C269.333 61.3116 269.899 60.5042 269.965 59.781C270.177 57.4477 268.797 55.3541 269.195 55.061C269.621 54.7466 270.069 55.296 270.771 55.5422C272.228 56.0536 274.708 56.8598 275.947 55.7083C276.938 54.7869 276.605 53.0861 275.99 52.0378C275.774 51.67 274.037 49.8807 273.732 49.3812C274.068 49.6962 276.324 49.806 276.795 49.8113C279.807 49.8421 283.676 47.0568 281.115 44.3634C280.65 43.874 279.771 43.55 279.128 43.448C278.904 43.4124 278.298 43.3727 277.458 43.4581C278.9 42.8832 280.886 41.1895 281.334 40.7332C284.552 37.4597 285.496 31.0673 281.119 31.918C280.163 32.1037 278.993 33.3881 278.364 33.8497C277.139 34.749 275.842 35.5541 274.492 36.2524C270.658 38.2338 265.676 40.051 261.439 38.3863C261.426 38.381 261.411 38.3828 261.397 38.3798V38.324C263.358 38.4978 265.497 38.2368 267.367 37.6815C268.701 37.4246 271.265 36.7317 274.201 34.9098C277.953 32.5813 276.527 29.6897 275.521 29.2015C277.076 28.0779 278.384 26.5146 278.746 24.6126C279.189 22.2794 277.177 22.1346 275.324 22.8281C277.241 20.5269 278.905 18.1366 279.34 15.1098C279.815 11.8018 278.134 7.27111 274.47 6.31003C274.171 6.23172 274.316 6.47436 274.292 6.76328C274.032 9.9289 272.606 12.8412 270.154 14.8968C268.484 16.2969 265.928 17.1322 263.898 17.4852C264.704 16.8914 265.856 15.2908 265.195 14.3475C264.684 13.6184 263.957 13.6047 263.256 13.8515C264.123 11.9163 264.916 9.67914 263.746 7.99429C262.935 6.82676 262.022 7.46392 261.382 8.19481C261.553 5.16148 260.744 1.59718 258.165 0.00843778C258.108 -0.0265645 258.038 0.0558984 258.071 0.0992062C260.122 2.76412 260.738 6.10773 259.98 10.0256C259.868 10.6017 260.633 10.6954 260.957 10.3964C261.83 9.59193 262.2 8.53356 262.879 9.8061C263.762 11.4619 262.343 13.314 261.51 14.9461C261.207 15.5388 261.696 15.785 262.2 15.2789C264.492 14.0912 264.075 16.612 263.431 17.2301C262.939 18.0666 263.446 17.1038 263.24 17.3832C263.225 17.4312 263.212 17.4728 263.201 17.5131C261.986 17.6496 258.248 17.5191 257.025 17.5695C253.054 17.7326 249.388 18.1633 248.162 22.2877C247.838 23.3769 247.653 25.8567 245.592 24.9727C245.485 22.49 245.796 20.7304 246.674 18.5027C247.802 15.6378 250.017 13.2322 252.269 11.2086C255.185 8.58932 258.116 5.15911 257.958 0.93926C257.956 0.875188 257.866 0.885274 257.862 0.943413C257.49 6.86888 250.651 10.55 247.522 14.8541C245.663 17.4105 244.024 21.4043 245.063 24.6399C244.342 23.9114 243.618 22.0106 243.142 21.3212C241.911 19.5379 240.396 17.9035 238.278 17.2153C236.626 16.6784 235.008 16.8392 233.555 17.7961C231.47 19.1695 230.595 21.5989 228.092 22.0231C228.093 22.0248 227.796 22.1945 228.263 22.3215ZM229.568 21.8997C230.431 21.4375 231.164 20.7161 231.949 19.9734C233.441 18.5632 235.021 17.2284 237.249 17.6727C239.27 18.0755 240.791 19.5171 241.969 21.11C242.944 22.4283 244.463 26.9643 246.471 26.8682C247.839 26.8029 248.128 25.4046 248.388 24.3457C249.954 17.9634 257.253 18.7821 263.12 18.2731C263.446 18.2416 263.639 18.231 263.772 18.2049C263.768 18.2066 263.764 18.209 263.761 18.2102C265.044 18.072 266.245 17.8542 267.279 17.4579C271.584 15.8087 274.334 12.4787 274.81 6.64878C277.909 7.96818 278.813 12.3678 278.137 15.2059C277.267 18.8622 274.57 22.5665 271.583 24.8025C270.947 25.2468 271.416 26.3022 272.093 25.8211C272.311 25.6663 272.524 25.5061 272.734 25.3418C273.656 24.6726 274.81 23.6266 276.507 23.3549C278.952 22.964 276.72 26.5734 276.032 27.2936C275.44 27.9141 274.107 28.6729 273.384 29.0591C271.289 30.1821 270.411 30.0997 269.581 30.3494C269.021 30.5185 268.979 30.9474 269.677 30.9326C270.737 30.9101 271.841 30.6817 272.899 30.2883C273.701 30.1744 274.569 30.1738 274.746 30.6562C275.06 31.5099 274.671 33.3424 271.593 34.8944C271.34 35.0119 271.055 35.143 270.728 35.2937C270.682 35.3132 270.641 35.3334 270.593 35.3524L270.572 35.3648C270.225 35.5238 269.849 35.6965 269.414 35.8952C266.499 37.2253 263.289 37.5724 261.47 37.6566C260.681 37.6649 259.62 37.6329 259.124 37.4288C258.43 37.1434 259.427 38.9078 263.017 39.4791C267.156 40.3192 271.87 38.6806 275.395 36.7863C276.614 36.1313 277.785 35.3921 278.898 34.5711C279.216 34.3367 280.072 33.47 280.364 33.4136C281.42 32.7563 282.756 32.8625 282.826 34.0466C282.9 34.7372 282.849 35.4153 282.673 36.0797C281.955 39.8143 279.009 42.6168 275.373 43.4913C275.141 43.5471 275.047 43.9564 275.33 44.0068C276.376 44.1949 279.016 43.1597 280.388 44.8813C281.76 46.6029 278.874 48.2831 278.874 48.2831C277.888 48.7885 277.138 49.0751 276.032 49.1314C274.897 49.1901 273.988 48.9463 272.924 48.5898C272.694 48.5126 272.451 48.868 272.635 49.0418C273.064 49.4488 273.492 49.8552 273.893 50.2912C274.967 51.4576 275.819 52.7912 275.141 54.4856C274.745 55.4745 273.58 55.3013 271.685 55.1382C270.384 55.026 270.1 54.7258 269.07 53.8971C268.857 53.7262 268.592 53.9208 268.608 54.17C268.662 55.0432 268.716 55.9165 268.767 56.7898C268.795 57.2549 268.87 59.2577 267.8 59.059C267.368 58.9789 266.448 56.0381 266.213 55.3316C265.372 52.8019 264.414 50.2651 262.781 48.1276C261.478 46.4226 259.812 44.9952 257.771 44.2673C254.73 43.184 251.518 43.5388 248.58 41.9862C242.483 38.7636 242.055 32.188 238.786 26.8593C236.573 23.2493 233.499 21.4595 229.568 21.8997Z" fill="white"/>
<path d="M234.064 19.2822C234.081 19.2632 234.104 19.2495 234.126 19.2353C234.17 19.205 234.215 19.1801 234.264 19.1594C234.421 19.0039 234.652 18.9274 234.873 18.9351C235.2 18.947 235.269 19.068 235.292 19.348C235.294 19.3771 235.258 19.3836 235.238 19.3765C235.215 19.3688 235.171 19.37 235.127 19.3711C235.373 19.7342 235.359 20.3393 234.855 20.3684C234.767 20.3738 234.684 20.3548 234.604 20.3263C234.531 20.3524 234.455 20.3702 234.377 20.369C234.297 20.3678 234.187 20.337 234.148 20.2587C233.982 19.9347 233.702 19.6357 234.012 19.3213C234.027 19.3065 234.047 19.2964 234.064 19.2822Z" fill="white"/>
<path d="M72.1014 71.688C72.1014 72.024 72.0921 72.276 72.0734 72.444H65.5074C65.5261 73.1253 65.6754 73.6993 65.9554 74.166C66.2354 74.6327 66.6041 74.9827 67.0614 75.216C67.5188 75.4493 68.0181 75.566 68.5594 75.566C69.3061 75.566 69.9314 75.384 70.4354 75.02C70.9394 74.6467 71.2568 74.1427 71.3874 73.508H72.0454C71.8961 74.2827 71.5134 74.9127 70.8974 75.398C70.2814 75.874 69.5021 76.112 68.5594 76.112C67.8501 76.112 67.2154 75.9533 66.6554 75.636C66.0954 75.3187 65.6568 74.866 65.3394 74.278C65.0221 73.6807 64.8634 72.9853 64.8634 72.192C64.8634 71.3987 65.0174 70.708 65.3254 70.12C65.6428 69.532 66.0814 69.084 66.6414 68.776C67.2014 68.4587 67.8408 68.3 68.5594 68.3C69.2874 68.3 69.9174 68.4587 70.4494 68.776C70.9908 69.084 71.4014 69.4993 71.6814 70.022C71.9614 70.5353 72.1014 71.0907 72.1014 71.688ZM71.4714 71.926C71.4994 71.254 71.3781 70.6847 71.1074 70.218C70.8461 69.7513 70.4868 69.406 70.0294 69.182C69.5721 68.9487 69.0774 68.832 68.5454 68.832C68.0134 68.832 67.5188 68.9487 67.0614 69.182C66.6134 69.406 66.2448 69.7513 65.9554 70.218C65.6754 70.6847 65.5261 71.254 65.5074 71.926H71.4714ZM77.9534 76L74.6354 72.514V76H74.0054V65.64H74.6354V71.842L77.8974 68.398H78.7794L75.0974 72.178L78.8214 76H77.9534ZM83.6759 72.192C83.6759 71.408 83.8299 70.722 84.1379 70.134C84.4553 69.546 84.8893 69.0933 85.4399 68.776C85.9999 68.4587 86.6346 68.3 87.3439 68.3C88.1466 68.3 88.8279 68.496 89.3879 68.888C89.9479 69.28 90.3399 69.7793 90.5639 70.386V68.398H91.1939V76H90.5639V73.998C90.3399 74.614 89.9433 75.1227 89.3739 75.524C88.8139 75.916 88.1373 76.112 87.3439 76.112C86.6346 76.112 85.9999 75.9533 85.4399 75.636C84.8893 75.3093 84.4553 74.852 84.1379 74.264C83.8299 73.6667 83.6759 72.976 83.6759 72.192ZM90.5639 72.192C90.5639 71.5293 90.4239 70.946 90.1439 70.442C89.8733 69.9287 89.4999 69.5367 89.0239 69.266C88.5479 68.986 88.0159 68.846 87.4279 68.846C86.8119 68.846 86.2706 68.9813 85.8039 69.252C85.3373 69.5133 84.9733 69.896 84.7119 70.4C84.4506 70.904 84.3199 71.5013 84.3199 72.192C84.3199 72.8827 84.4506 73.48 84.7119 73.984C84.9733 74.488 85.3373 74.8753 85.8039 75.146C86.2799 75.4167 86.8213 75.552 87.4279 75.552C88.0159 75.552 88.5479 75.4167 89.0239 75.146C89.5093 74.866 89.8873 74.474 90.1579 73.97C90.4286 73.4567 90.5639 72.864 90.5639 72.192ZM94.4258 68.944V73.97C94.4258 74.53 94.5285 74.9173 94.7338 75.132C94.9392 75.3373 95.3032 75.44 95.8258 75.44H96.6798V76H95.7278C95.0652 76 94.5752 75.846 94.2578 75.538C93.9498 75.2207 93.7958 74.698 93.7958 73.97V68.944H92.6478V68.398H93.7958V66.466H94.4258V68.398H96.6798V68.944H94.4258ZM101.687 76.112C100.978 76.112 100.339 75.9533 99.7694 75.636C99.2 75.3187 98.752 74.866 98.4254 74.278C98.108 73.6807 97.9494 72.9853 97.9494 72.192C97.9494 71.408 98.1127 70.722 98.4394 70.134C98.766 69.5367 99.214 69.084 99.7834 68.776C100.362 68.4587 101.006 68.3 101.715 68.3C102.425 68.3 103.064 68.4587 103.633 68.776C104.203 69.084 104.646 69.532 104.963 70.12C105.29 70.708 105.453 71.3987 105.453 72.192C105.453 72.9853 105.29 73.6807 104.963 74.278C104.637 74.866 104.184 75.3187 103.605 75.636C103.036 75.9533 102.397 76.112 101.687 76.112ZM101.687 75.552C102.238 75.552 102.751 75.4307 103.227 75.188C103.713 74.936 104.1 74.558 104.389 74.054C104.679 73.55 104.823 72.9293 104.823 72.192C104.823 71.464 104.679 70.848 104.389 70.344C104.1 69.84 103.717 69.4667 103.241 69.224C102.765 68.972 102.252 68.846 101.701 68.846C101.151 68.846 100.637 68.972 100.161 69.224C99.6947 69.4667 99.3167 69.84 99.0274 70.344C98.738 70.848 98.5934 71.464 98.5934 72.192C98.5934 72.9293 98.7334 73.55 99.0134 74.054C99.3027 74.558 99.6807 74.936 100.147 75.188C100.623 75.4307 101.137 75.552 101.687 75.552ZM110.711 76.112C110.001 76.112 109.362 75.9533 108.793 75.636C108.223 75.3187 107.775 74.866 107.449 74.278C107.131 73.6807 106.973 72.9853 106.973 72.192C106.973 71.408 107.136 70.722 107.463 70.134C107.789 69.5367 108.237 69.084 108.807 68.776C109.385 68.4587 110.029 68.3 110.739 68.3C111.448 68.3 112.087 68.4587 112.657 68.776C113.226 69.084 113.669 69.532 113.987 70.12C114.313 70.708 114.477 71.3987 114.477 72.192C114.477 72.9853 114.313 73.6807 113.987 74.278C113.66 74.866 113.207 75.3187 112.629 75.636C112.059 75.9533 111.42 76.112 110.711 76.112ZM110.711 75.552C111.261 75.552 111.775 75.4307 112.251 75.188C112.736 74.936 113.123 74.558 113.413 74.054C113.702 73.55 113.847 72.9293 113.847 72.192C113.847 71.464 113.702 70.848 113.413 70.344C113.123 69.84 112.741 69.4667 112.265 69.224C111.789 68.972 111.275 68.846 110.725 68.846C110.174 68.846 109.661 68.972 109.185 69.224C108.718 69.4667 108.34 69.84 108.051 70.344C107.761 70.848 107.617 71.464 107.617 72.192C107.617 72.9293 107.757 73.55 108.037 74.054C108.326 74.558 108.704 74.936 109.171 75.188C109.647 75.4307 110.16 75.552 110.711 75.552ZM117.326 68.944V73.97C117.326 74.53 117.429 74.9173 117.634 75.132C117.84 75.3373 118.204 75.44 118.726 75.44H119.58V76H118.628C117.966 76 117.476 75.846 117.158 75.538C116.85 75.2207 116.696 74.698 116.696 73.97V68.944H115.548V68.398H116.696V66.466H117.326V68.398H119.58V68.944H117.326ZM125.823 70.4C126.056 69.784 126.453 69.28 127.013 68.888C127.573 68.496 128.25 68.3 129.043 68.3C129.752 68.3 130.382 68.4587 130.933 68.776C131.493 69.0933 131.927 69.546 132.235 70.134C132.552 70.722 132.711 71.408 132.711 72.192C132.711 72.976 132.552 73.6667 132.235 74.264C131.927 74.852 131.493 75.3093 130.933 75.636C130.382 75.9533 129.752 76.112 129.043 76.112C128.25 76.112 127.568 75.916 126.999 75.524C126.439 75.132 126.047 74.628 125.823 74.012V76H125.193V65.64H125.823V70.4ZM132.067 72.192C132.067 71.5013 131.936 70.904 131.675 70.4C131.414 69.896 131.045 69.5133 130.569 69.252C130.102 68.9813 129.561 68.846 128.945 68.846C128.357 68.846 127.825 68.986 127.349 69.266C126.873 69.5367 126.5 69.9287 126.229 70.442C125.958 70.946 125.823 71.5293 125.823 72.192C125.823 72.864 125.958 73.4567 126.229 73.97C126.5 74.474 126.873 74.866 127.349 75.146C127.825 75.4167 128.357 75.552 128.945 75.552C129.561 75.552 130.102 75.4167 130.569 75.146C131.045 74.8753 131.414 74.488 131.675 73.984C131.936 73.48 132.067 72.8827 132.067 72.192ZM134.221 72.192C134.221 71.408 134.375 70.722 134.683 70.134C135 69.546 135.434 69.0933 135.985 68.776C136.545 68.4587 137.18 68.3 137.889 68.3C138.692 68.3 139.373 68.496 139.933 68.888C140.493 69.28 140.885 69.7793 141.109 70.386V68.398H141.739V76H141.109V73.998C140.885 74.614 140.488 75.1227 139.919 75.524C139.359 75.916 138.682 76.112 137.889 76.112C137.18 76.112 136.545 75.9533 135.985 75.636C135.434 75.3093 135 74.852 134.683 74.264C134.375 73.6667 134.221 72.976 134.221 72.192ZM141.109 72.192C141.109 71.5293 140.969 70.946 140.689 70.442C140.418 69.9287 140.045 69.5367 139.569 69.266C139.093 68.986 138.561 68.846 137.973 68.846C137.357 68.846 136.816 68.9813 136.349 69.252C135.882 69.5133 135.518 69.896 135.257 70.4C134.996 70.904 134.865 71.5013 134.865 72.192C134.865 72.8827 134.996 73.48 135.257 73.984C135.518 74.488 135.882 74.8753 136.349 75.146C136.825 75.4167 137.366 75.552 137.973 75.552C138.561 75.552 139.093 75.4167 139.569 75.146C140.054 74.866 140.432 74.474 140.703 73.97C140.974 73.4567 141.109 72.864 141.109 72.192ZM147.463 68.244C148.368 68.244 149.105 68.524 149.675 69.084C150.244 69.6347 150.529 70.456 150.529 71.548V76H149.913V71.59C149.913 70.6847 149.684 69.994 149.227 69.518C148.769 69.0327 148.149 68.79 147.365 68.79C146.543 68.79 145.885 69.0513 145.391 69.574C144.905 70.0967 144.663 70.8713 144.663 71.898V76H144.033V68.398H144.663V70.008C144.877 69.4387 145.232 69.0047 145.727 68.706C146.231 68.398 146.809 68.244 147.463 68.244ZM152.363 72.192C152.363 71.408 152.517 70.722 152.825 70.134C153.143 69.546 153.577 69.0933 154.127 68.776C154.687 68.4587 155.322 68.3 156.031 68.3C156.806 68.3 157.478 68.496 158.047 68.888C158.617 69.2707 159.018 69.77 159.251 70.386V65.64H159.881V76H159.251V73.984C159.027 74.6093 158.635 75.1227 158.075 75.524C157.515 75.916 156.834 76.112 156.031 76.112C155.322 76.112 154.687 75.9533 154.127 75.636C153.577 75.3093 153.143 74.852 152.825 74.264C152.517 73.6667 152.363 72.976 152.363 72.192ZM159.251 72.192C159.251 71.5293 159.111 70.946 158.831 70.442C158.561 69.9287 158.187 69.5367 157.711 69.266C157.235 68.986 156.703 68.846 156.115 68.846C155.499 68.846 154.958 68.9813 154.491 69.252C154.025 69.5133 153.661 69.896 153.399 70.4C153.138 70.904 153.007 71.5013 153.007 72.192C153.007 72.8827 153.138 73.48 153.399 73.984C153.661 74.488 154.025 74.8753 154.491 75.146C154.967 75.4167 155.509 75.552 156.115 75.552C156.703 75.552 157.235 75.4167 157.711 75.146C158.197 74.866 158.575 74.474 158.845 73.97C159.116 73.4567 159.251 72.864 159.251 72.192ZM165.619 68.244C166.515 68.244 167.248 68.524 167.817 69.084C168.387 69.6347 168.671 70.456 168.671 71.548V76H168.055V71.59C168.055 70.6847 167.827 69.994 167.369 69.518C166.912 69.0327 166.291 68.79 165.507 68.79C164.686 68.79 164.028 69.0513 163.533 69.574C163.048 70.0967 162.805 70.8713 162.805 71.898V76H162.175V65.64H162.805V70.008C163.02 69.4387 163.379 69.0047 163.883 68.706C164.387 68.398 164.966 68.244 165.619 68.244ZM170.506 72.192C170.506 71.408 170.66 70.722 170.968 70.134C171.285 69.546 171.719 69.0933 172.27 68.776C172.83 68.4587 173.465 68.3 174.174 68.3C174.977 68.3 175.658 68.496 176.218 68.888C176.778 69.28 177.17 69.7793 177.394 70.386V68.398H178.024V76H177.394V73.998C177.17 74.614 176.773 75.1227 176.204 75.524C175.644 75.916 174.967 76.112 174.174 76.112C173.465 76.112 172.83 75.9533 172.27 75.636C171.719 75.3093 171.285 74.852 170.968 74.264C170.66 73.6667 170.506 72.976 170.506 72.192ZM177.394 72.192C177.394 71.5293 177.254 70.946 176.974 70.442C176.703 69.9287 176.33 69.5367 175.854 69.266C175.378 68.986 174.846 68.846 174.258 68.846C173.642 68.846 173.101 68.9813 172.634 69.252C172.167 69.5133 171.803 69.896 171.542 70.4C171.281 70.904 171.15 71.5013 171.15 72.192C171.15 72.8827 171.281 73.48 171.542 73.984C171.803 74.488 172.167 74.8753 172.634 75.146C173.11 75.4167 173.651 75.552 174.258 75.552C174.846 75.552 175.378 75.4167 175.854 75.146C176.339 74.866 176.717 74.474 176.988 73.97C177.259 73.4567 177.394 72.864 177.394 72.192ZM183.748 68.244C184.653 68.244 185.391 68.524 185.96 69.084C186.529 69.6347 186.814 70.456 186.814 71.548V76H186.198V71.59C186.198 70.6847 185.969 69.994 185.512 69.518C185.055 69.0327 184.434 68.79 183.65 68.79C182.829 68.79 182.171 69.0513 181.676 69.574C181.191 70.0967 180.948 70.8713 180.948 71.898V76H180.318V68.398H180.948V70.008C181.163 69.4387 181.517 69.0047 182.012 68.706C182.516 68.398 183.095 68.244 183.748 68.244Z" fill="white"/>
</svg>
