<svg width="64" height="45" viewBox="0 0 64 45" fill="none" xmlns="http://www.w3.org/2000/svg">
<g opacity="0.6">
<path d="M39.3717 32.454C39.3717 32.454 44.6538 23.09 52.8318 23.692C61.2358 24.311 64.9087 32.89 62.1317 38.683C59.3547 44.476 51.7597 45.567 48.1997 41.316C44.6397 37.066 46.9667 31.363 51.5747 30.773C55.1847 30.311 56.1697 34.349 54.8107 35.275C53.4507 36.201 53.0118 34.464 51.1848 34.453C49.3578 34.442 47.7247 37.262 49.8027 40.202C51.7887 43.011 56.6877 42.575 59.1437 39.184C62.1527 35.029 60.5917 30.007 57.4977 27.863C54.4037 25.719 50.3017 24.617 44.5747 29.453C38.8477 34.289 40.1707 36.917 33.3857 43.985L39.3717 32.454Z" fill="#DF5770"/>
<path d="M23.6747 32.785C23.6747 32.785 18.3926 23.4209 10.2146 24.0229C1.81065 24.6419 -1.86236 33.221 0.914644 39.014C3.69164 44.806 11.2867 45.898 14.8467 41.647C18.4067 37.397 16.0797 31.694 11.4717 31.104C7.86265 30.642 6.87665 34.68 8.23665 35.606C9.59665 36.532 10.0357 34.7949 11.8627 34.7839C13.6897 34.7729 15.3226 37.593 13.2446 40.533C11.2586 43.342 6.35966 42.906 3.90366 39.515C0.894658 35.36 2.45565 30.3379 5.54965 28.1929C8.64365 26.0479 12.7457 24.947 18.4727 29.783C24.1997 34.619 22.8767 37.247 29.6617 44.315L23.6747 32.785Z" fill="#DF5770"/>
<path d="M26.2825 27.344C23.5125 24.434 21.8045 22.535 19.3935 19.198C17.9425 17.191 14.8225 13.485 13.9065 9.967C12.2215 3.501 16.0675 0.821993 20.2675 2.86499C24.2565 4.80499 27.7805 8.38 30.3525 12.609C30.4975 12.848 32.0085 13.127 31.8915 12.883C29.4185 7.711 24.7525 2.01599 19.7965 0.310992C16.6375 -0.776008 12.5585 1.012 11.5215 5.275C10.0255 11.427 16.3025 18.577 19.3875 22.236C22.9485 26.458 26.8275 31.857 31.3535 34.515C31.5635 34.639 32.3755 34.265 32.2305 34.053C31.2955 32.687 28.0045 29.154 26.2825 27.344Z" fill="#DF5770"/>
<path d="M36.9696 27.344C39.6076 24.434 40.9586 22.939 43.2546 19.602C44.6356 17.595 48.3926 12.565 48.7556 9.96803C49.6776 3.35603 46.0346 1.84902 42.0346 3.89102C38.2366 5.83102 35.5437 8.38003 33.0957 12.61C32.9577 12.849 31.7807 13.128 31.8927 12.884C34.2477 7.71203 38.5757 2.64703 43.2947 0.942026C46.3026 -0.144974 50.0396 1.01203 51.0266 5.27603C52.4506 11.428 46.4746 18.578 43.5356 22.237C40.1446 26.459 33.1736 35.735 31.7616 34.525C31.5826 34.372 31.0567 32.606 31.2907 32.71C31.8957 32.977 35.3296 29.154 36.9696 27.344Z" fill="#DF5770"/>
<path d="M19.1245 2.26001C19.1245 2.26001 24.1695 4.03701 27.4315 10.508C31.5315 18.641 32.3585 15.814 33.6425 14.224C35.0545 12.476 35.1885 9.31701 42.6495 3.53701L40.9695 3.06701L35.1215 8.57901L32.5005 12.545C32.5005 12.545 32.0295 13.419 31.4245 12.209C30.8195 10.999 26.6525 6.36101 26.6525 6.36101L22.3505 3.60501L19.1245 2.26001Z" fill="#DF5770"/>
</g>
</svg>
