<svg width="76" height="62" viewBox="0 0 76 62" fill="none" xmlns="http://www.w3.org/2000/svg">
<path d="M28.2993 15.4213C7.6983 11.0643 -7.60269 35.2603 5.04231 52.0543C10.9353 59.8813 21.4223 63.3163 30.7803 60.3053C40.2233 57.2673 46.2723 48.6933 46.8213 38.9403C46.9003 27.7923 39.3553 17.7593 28.2993 15.4213ZM22.8693 57.8313C12.1453 57.5183 3.52331 48.2993 3.89931 37.5803C4.27531 26.8783 13.5633 18.1273 24.2873 18.4773C35.2393 18.8353 43.3343 27.9813 43.2573 38.7283C42.6543 49.4463 33.7663 58.1493 22.8693 57.8313Z" fill="white"/>
<path d="M63.0435 16.6273C45.8345 9.62427 29.0845 28.8553 38.2445 44.9673C47.4845 61.2203 71.9405 56.5323 75.3685 38.5293C76.5805 29.2923 71.8315 20.2033 63.0435 16.6273ZM53.5585 51.3263C44.0705 50.3373 37.1225 41.3573 38.6385 31.9123C40.0565 23.0773 48.3505 16.5793 57.2925 17.5223C66.9855 18.5433 73.4565 27.4533 72.2125 36.9363C70.5375 45.7373 62.6955 52.2793 53.5585 51.3263Z" fill="white"/>
<path d="M56.2012 16.9063C56.2012 16.9063 52.0962 14.1453 53.7552 11.7553C55.4142 9.36427 57.7802 12.3353 58.1862 15.4503L56.2012 16.9063Z" fill="white"/>
<path d="M61.2113 16.2542C61.2113 16.2542 64.0023 11.2152 61.1943 9.89422C58.3863 8.57422 56.2463 11.3902 57.9263 15.4682C59.6063 19.5472 61.2113 16.2542 61.2113 16.2542Z" fill="white"/>
<path d="M61.165 16.5532C61.165 16.5532 61.872 10.3232 65.26 11.1432C68.648 11.9632 68.234 15.6152 63.142 18.3012L61.165 16.5532Z" fill="white"/>
<path d="M64.5513 17.2872C64.5513 17.2872 67.7033 13.7572 69.4343 15.7392C71.1643 17.7222 69.3173 19.7912 65.0083 19.2262L64.5513 17.2872Z" fill="white"/>
<path d="M58.8301 12.2502L56.1401 3.54425L58.1212 3.12024L60.0541 12.0962L58.8301 12.2502Z" fill="white"/>
<path d="M62.8184 13.5602L64.3584 0.78125L68.4724 1.54825L63.7003 13.2442L62.8184 13.5602Z" fill="white"/>
<path d="M65.5674 14.3892L71.7224 7.84924L73.6424 9.93524L65.7124 15.1902L65.5674 14.3892Z" fill="white"/>
<path d="M57.1961 4.50624L65.3091 2.94225L66.6801 3.19624L71.6571 9.15625L73.6422 9.93524L68.6491 1.15125L64.3332 0.612244L56.1401 3.54425L57.1961 4.50624Z" fill="white"/>
</svg>
