<svg width="320" height="27" viewBox="0 0 320 27" fill="none" xmlns="http://www.w3.org/2000/svg">
<path d="M319.442 10.6391C310.05 8.71271 303.727 10.6391 296.846 18.253C292.852 22.6724 288.986 24.3082 286.442 24.9048C282.863 25.6306 278.82 24.5063 275.714 22.4331C276.394 21.7037 276.972 20.8421 277.41 19.825C278.584 17.0972 277.759 13.601 275.12 11.977C272.212 10.1878 270.107 12.4129 269.936 15.3146C269.768 18.1642 270.996 20.6499 272.96 22.5645C269.142 25.0017 263.324 24.3016 259.352 22.8405C258.317 22.4596 257.306 21.9936 256.328 21.4578C257.386 20.7577 258.39 19.9651 259.32 19.0735C262.539 15.9883 266.433 11.3157 266.513 6.65273C266.583 2.55406 263.259 -0.179614 259.199 0.55279C257.343 0.887435 255.878 1.9435 254.889 3.3584C251.649 1.04083 245.943 1.21035 244.804 5.9284C243.962 9.41576 245.693 13.24 247.662 16.0485C249.134 18.1474 250.992 19.9864 253.099 21.4806C246.883 24.5673 239.057 24.477 232.96 21.2135C234.424 20.3247 235.792 19.2863 237.005 18.0842C239.752 15.363 242.071 11.541 242.013 7.58474C241.968 4.51423 239.546 1.13036 236.037 1.92441C234.928 2.17539 234.116 2.81311 233.538 3.64973C232.813 3.04428 231.996 2.54746 231.133 2.19961C227.721 0.825803 223.476 2.0198 222.499 5.82345C221.643 9.15009 223.18 12.9765 224.983 15.7381C226.33 17.801 228.033 19.5924 230.006 21.0373C227.896 22.1191 225.636 22.9087 223.409 23.371C223.407 23.371 223.406 23.3718 223.404 23.3718L221.704 23.6095C220.254 23.7174 218.732 23.5582 217.565 22.7847C219.897 21.1283 222.015 18.6882 222.111 15.9545C222.218 12.9317 219.319 10.8945 216.574 12.4635C216.125 12.7204 215.741 13.0337 215.411 13.3853C214.777 12.2169 213.959 11.3554 212.935 11.1367C209.647 10.4336 207.354 14.3349 209.036 18.0681C210.168 20.5787 211.67 22.26 213.75 23.3498C210.028 24.8087 205.161 24.1152 201.698 22.8412C200.663 22.4603 199.651 21.9943 198.674 21.4586C199.731 20.7585 200.736 19.9659 201.666 19.0742C204.885 15.989 208.779 11.3165 208.858 6.65347C208.928 2.5548 205.605 -0.178874 201.544 0.553529C199.688 0.888174 198.224 1.94421 197.235 3.35912C193.994 1.04155 188.289 1.21109 187.15 5.92914C186.308 9.4165 188.039 13.2407 190.008 16.0492C191.479 18.1481 193.338 19.9872 195.444 21.4813C189.229 24.568 181.402 24.4777 175.305 21.2142C176.77 20.3255 178.137 19.2871 179.351 18.085C182.097 15.3638 184.417 11.5418 184.359 7.58548C184.313 4.51496 181.892 1.1311 178.383 1.92515C177.274 2.17613 176.461 2.81385 175.885 3.65046C175.159 3.04502 174.343 2.5482 173.479 2.20035C170.067 0.826542 165.823 2.02054 164.845 5.82419C163.99 9.15083 165.527 12.9772 167.329 15.7388C168.676 17.8017 170.379 19.5931 172.352 21.0381C170.242 22.1198 167.982 22.9094 165.755 23.3718C165.753 23.3718 165.752 23.3725 165.75 23.3725L164.051 23.6103C162.601 23.7182 161.078 23.5589 159.912 22.7854C162.244 21.1291 164.362 18.6889 164.458 15.9553C164.565 12.9325 161.666 10.8952 158.921 12.4643C158.472 12.7211 158.088 13.0345 157.758 13.386C157.124 12.2177 156.307 11.3561 155.282 11.1374C151.994 10.4344 149.701 14.3356 151.383 18.0688C152.453 20.4429 153.85 22.0794 155.757 23.1722C152.57 24.4535 148.932 24.3669 144.326 22.8625C143.306 22.5293 141.898 21.8827 140.901 21.1936C141.944 20.4722 143.175 19.5725 144.086 18.6611C147.239 15.5106 151.034 10.758 151.014 6.09498C150.997 1.99558 147.616 -0.66909 143.572 0.146975C141.724 0.519781 140.281 1.6059 139.323 3.04062C136.034 0.790575 130.333 1.07825 129.294 5.81833C128.527 9.32256 130.338 13.1093 132.367 15.8775C133.883 17.9455 135.78 19.7457 137.917 21.1959C131.769 24.4102 122.714 24.6641 117.777 21.3448C119.223 20.4253 120.568 19.3597 121.756 18.1327C124.443 15.3557 126.682 11.486 126.54 7.53191C126.43 4.46286 123.937 1.12962 120.445 1.99632C119.341 2.27005 118.543 2.92466 117.983 3.77302C117.245 3.18298 116.418 2.70304 115.547 2.3728C112.107 1.06944 107.889 2.35153 106.992 6.17353C106.207 9.51704 107.825 13.3104 109.686 16.0345C111.077 18.0696 112.818 19.825 114.821 21.2289C112.734 22.3539 110.491 23.1898 108.275 23.6983C106.43 24.121 104.083 24.2869 102.421 23.2331C104.717 21.529 106.782 19.0456 106.821 16.3105C106.864 13.2862 103.893 11.3532 101.237 13.0646C100.698 13.4117 100.274 13.8542 99.9457 14.3576C99.3409 13.3831 98.568 12.6639 97.5927 12.4555C94.3046 11.7524 91.7709 15.3755 93.7021 18.9898C94.7629 20.9757 96.5401 22.5814 99.088 23.7394C95.7835 25.2358 92.0097 25.2219 87.1653 23.6396C86.1454 23.3065 84.7372 22.6599 83.7404 21.9708C84.7833 21.2494 86.0145 20.3497 86.9265 19.4382C90.0792 16.2877 93.8739 11.5352 93.8546 6.87217C93.8375 2.77277 90.4564 0.108073 86.4125 0.924137C84.5639 1.29694 83.1214 2.38307 82.1633 3.81852C78.8745 1.56848 73.1731 1.85616 72.1347 6.59623C71.3669 10.0997 73.1784 13.8872 75.207 16.6554C76.7231 18.7234 78.6201 20.5236 80.7581 21.9738C74.6096 25.1881 65.5548 25.442 60.6182 22.1227C62.0636 21.2039 63.4086 20.1376 64.5966 18.9106C67.2844 16.1336 69.5228 12.2639 69.3807 8.30981C69.2699 5.24076 66.7778 1.90752 63.2859 2.77422C62.1819 3.04796 61.3829 3.70258 60.825 4.55094C60.087 3.96091 59.2598 3.48094 58.3894 3.1507C54.9496 1.84734 50.7309 3.12943 49.8345 6.95143C49.0497 10.2949 50.6669 14.0883 52.5282 16.8124C53.9185 18.8475 55.6593 20.6029 57.6626 22.0068C55.576 23.1318 53.3331 23.9677 51.1162 24.4762C49.2713 24.899 46.9251 25.0648 45.2624 24.011C47.5589 22.3069 49.624 19.8235 49.6626 17.0884C49.7058 14.0641 46.7354 12.1311 44.0789 13.8425C41.1032 15.7593 41.5384 20.4972 43.2048 23.1193C43.3379 23.3285 43.4785 23.523 43.6258 23.7057C42.6186 24.3574 41.5153 24.8726 40.369 25.2762C36.6658 26.1282 30.3002 25.9469 23.1542 18.5752C16.0082 11.2027 9.94979 9.03488 0.557932 10.9613C0.557932 10.9613 0 11.0075 0 11.2827C0 11.5579 0.836898 11.4662 1.34871 11.4207C1.86052 11.3752 7.114 10.3654 11.2055 11.6959C15.297 13.0264 17.9937 14.4024 22.411 19.4015C26.8283 24.4007 30.2682 26.3278 35.2434 26.9237C39.9636 27.4895 44.4962 24.7221 44.4962 24.7221L44.392 24.6135C44.4173 24.5973 44.4426 24.5827 44.4679 24.5665C46.9258 26.6074 50.5799 26.1964 53.6046 25.2864C55.5224 24.7096 57.4075 23.942 59.1765 22.9762C60.0387 23.4731 61.2602 24.0653 62.196 24.4344C68.8533 27.0588 76.2001 26.3983 82.3106 22.941C83.1378 23.4136 84.6777 24.1167 85.5548 24.4843C87.881 25.4611 90.6625 26.0878 93.4343 26.1289C94.1172 26.1531 94.7979 26.1245 95.4741 26.046C97.3889 25.8589 99.2405 25.3525 100.875 24.4374C101.554 24.6605 102.261 24.8674 103.03 25.0369C107.8 26.0886 111.975 24.1475 111.975 24.1475L111.792 24.1732C113.354 23.6433 114.886 22.9916 116.337 22.199C117.199 22.6959 118.42 23.2881 119.357 23.6572C126.014 26.2816 133.361 25.6211 139.471 22.1638C140.298 22.6365 141.838 23.3395 142.715 23.7072C145.492 24.8726 148.917 25.5492 152.199 25.3121C154.212 25.2387 156.182 24.8535 157.75 24.0844C157.759 24.08 157.769 24.0741 157.779 24.0689C158.808 24.4161 159.955 24.6641 161.239 24.8292C162.086 24.9379 162.891 24.943 163.649 24.885C165.181 24.9224 166.774 24.6377 168.227 24.2333C170.157 23.6961 172.057 22.9681 173.846 22.0383C174.697 22.5528 175.589 23.0078 176.518 23.396C183.118 26.1576 190.793 25.8112 196.976 22.4809C197.794 22.9703 198.639 23.4129 199.508 23.7989C204.096 25.8376 211.118 26.8151 215.812 24.1878C216.742 24.4719 217.762 24.6847 218.892 24.8292C219.739 24.9379 220.544 24.943 221.302 24.885C222.834 24.9224 224.427 24.6377 225.88 24.2333C227.81 23.6961 229.71 22.9681 231.499 22.0383C232.35 22.5528 233.242 23.0078 234.171 23.396C240.771 26.1576 248.446 25.8112 254.629 22.4809C255.447 22.9703 256.292 23.4129 257.161 23.7989C262.02 25.9579 269.614 26.9325 274.276 23.6873C276.474 25.3195 279.252 26.3491 281.997 26.5905C282.888 26.694 283.818 26.7168 284.757 26.6045C289.733 26.0078 293.173 24.0814 297.59 19.0823C302.007 14.0824 304.704 12.7064 308.795 11.3767C312.887 10.0469 318.14 11.0552 318.652 11.1015C319.163 11.1477 320 11.2394 320 10.9635C320 10.6875 319.442 10.6391 319.442 10.6391ZM44.337 23.2096C43.4071 22.169 42.9704 20.7695 42.8529 19.381C42.6773 17.3129 43.2814 14.3415 45.9096 14.2696C48.8302 14.1903 48.7179 17.6549 47.6987 19.4654C46.8633 20.95 45.7013 22.2005 44.337 23.2096ZM60.9529 6.80832C61.8553 7.71171 62.5449 8.78023 62.8135 9.90599C62.8946 10.2458 63.1899 11.2409 62.9154 11.8243C62.501 12.7057 61.525 12.5039 61.1203 11.5256C61.0065 11.2504 60.8124 10.6575 60.7588 10.383C60.5334 9.22202 60.5899 7.95316 60.9529 6.80832ZM59.0277 21.2127C57.4075 20.1853 55.9338 18.9165 54.6863 17.3929C53.0564 15.4019 51.8579 12.9633 51.3669 10.4469C51.1073 9.11488 51.0203 7.65299 51.6161 6.39587C52.4612 4.61403 54.5122 3.94181 56.3965 4.28967C57.6478 4.52084 58.9846 5.17031 60.1235 6.07003C59.6742 7.54511 59.6831 9.23595 59.9933 10.5936C60.2247 11.6056 61.0087 13.6729 62.3887 13.5078C63.3297 13.3955 63.6251 12.341 63.7746 11.544C64.2128 9.20514 63.2725 6.96831 61.6738 5.3193C63.5864 2.70378 67.0738 5.08152 67.4443 7.96637C67.8006 10.7375 66.411 13.6179 64.854 15.8401C63.3595 17.9756 61.3227 19.7795 59.0277 21.2127ZM81.9587 8.23496C82.0763 7.54366 82.0666 6.9771 82.2369 6.36799C82.632 6.88464 84.6494 10.9341 83.1281 11.0875C81.6068 11.2409 81.9074 8.53365 81.9587 8.23496ZM74.9176 12.8459C73.7519 10.4351 72.27 5.37507 75.9219 4.23023C77.8397 3.62845 79.8899 4.20454 81.3457 5.4345C80.9366 6.53458 80.7543 7.73372 80.8354 8.927C80.9083 9.99698 81.5399 12.3894 82.9809 12.4158C87.3297 12.4965 84.2589 5.74199 83.05 4.54505C83.1304 4.42176 83.2122 4.29847 83.3015 4.18105C84.9909 1.95522 88.5512 1.41729 90.5538 3.53965C94.7651 8.00232 88.3861 15.7454 85.1337 18.8555C84.2968 19.6554 83.387 20.3651 82.4259 20.994C79.2345 18.9928 76.5334 16.1879 74.9176 12.8459ZM100.318 23.1068C97.4216 21.8497 95.5485 20.0452 94.8425 17.8171C94.0525 15.3256 96.0372 13.6649 97.2416 13.9166C97.9133 14.0568 98.7049 14.5734 99.3878 15.5238C98.6543 17.7247 99.2174 20.5346 100.366 22.3407C100.481 22.522 100.605 22.6878 100.731 22.8493C100.593 22.9359 100.456 23.0254 100.318 23.1068ZM100.013 18.6038C99.9636 18.0241 99.9784 17.3746 100.08 16.7368C100.323 17.2887 100.533 17.9235 100.685 18.6596C100.992 20.1391 101.1 21.2252 101.131 21.9649C100.452 20.9911 100.114 19.7942 100.013 18.6038ZM100.47 15.3484C100.924 14.3143 101.735 13.5284 103.07 13.4924C105.991 13.4132 105.878 16.8778 104.859 18.6882C104.065 20.0987 102.97 21.2913 101.693 22.2724C101.8 20.4847 101.457 17.5588 100.47 15.3484ZM118.113 6.03042C119.016 6.93381 119.705 8.00233 119.974 9.12809C120.055 9.46787 120.35 10.463 120.076 11.0457C119.662 11.9271 118.686 11.7253 118.281 10.747C118.167 10.4718 117.973 9.87883 117.919 9.60436C117.694 8.44411 117.75 7.17525 118.113 6.03042ZM116.188 20.4356C114.568 19.4081 113.094 18.1393 111.847 16.6158C110.217 14.6248 109.018 12.1861 108.527 9.67041C108.268 8.33843 108.181 6.87657 108.777 5.61945C109.622 3.83761 111.673 3.16539 113.557 3.51324C114.808 3.74441 116.145 4.39389 117.284 5.29361C116.835 6.76869 116.844 8.45953 117.154 9.81719C117.385 10.8292 118.169 12.8965 119.549 12.7314C120.49 12.6191 120.786 11.5645 120.935 10.7675C121.373 8.4287 120.433 6.19186 118.834 4.54285C120.747 1.92734 124.234 4.30508 124.605 7.18992C124.961 9.96102 123.572 12.8415 122.015 15.0636C120.519 17.1977 118.482 19.0016 116.188 20.4356ZM139.118 7.45706C139.236 6.76575 139.226 6.1992 139.397 5.59009C139.792 6.10673 141.809 10.1562 140.288 10.3096C138.767 10.463 139.068 7.75575 139.118 7.45706ZM132.077 12.068C130.912 9.6572 129.43 4.59717 133.081 3.45233C134.999 2.85129 137.049 3.42664 138.505 4.6566C138.096 5.75668 137.914 6.95582 137.994 8.14836C138.067 9.21834 138.699 11.6108 140.14 11.6372C144.489 11.7179 141.418 4.96337 140.21 3.76643C140.29 3.64314 140.371 3.51985 140.461 3.40243C142.151 1.1766 145.711 0.638654 147.714 2.76101C151.925 7.22368 145.546 14.9668 142.293 18.0769C141.456 18.8768 140.546 19.5865 139.585 20.2154C136.395 18.2149 133.693 15.41 132.077 12.068ZM152.53 16.4984C151.913 13.9592 153.725 12.3461 154.93 12.5971C155.612 12.7395 156.417 13.2693 157.107 14.2483C155.684 16.5901 156.034 19.9732 157.268 22.009C157.318 22.0912 157.375 22.1624 157.427 22.2401C154.362 20.6506 153.082 18.7704 152.53 16.4984ZM157.602 18.107C157.553 17.3364 157.616 16.444 157.847 15.625C158.055 16.1307 158.239 16.6906 158.374 17.3408C158.801 19.403 158.863 20.9625 158.857 21.7727C158.057 20.7379 157.686 19.4162 157.602 18.107ZM158.29 14.5536C158.783 13.6876 159.57 13.0675 160.767 13.0601C163.688 13.0411 163.502 16.5028 162.445 18.2919C161.689 19.5711 160.678 20.6564 159.516 21.5664C159.569 19.7743 159.197 16.8609 158.29 14.5536ZM175.966 5.91006C176.848 6.83254 177.515 7.91426 177.761 9.04516C177.834 9.38641 178.108 10.3874 177.822 10.965C177.389 11.8375 176.417 11.6159 176.033 10.6296C175.926 10.3522 175.744 9.75553 175.697 9.4796C175.495 8.31494 175.578 7.04756 175.966 5.91006ZM173.735 20.2719C172.136 19.2115 170.69 17.9125 169.475 16.3633C167.888 14.3393 166.741 11.8764 166.305 9.35044C166.073 8.01332 166.017 6.54999 166.64 5.30535C167.523 3.54112 169.588 2.91219 171.464 3.29894C172.71 3.55579 174.033 4.23242 175.153 5.15563C174.672 6.62117 174.645 8.31201 174.927 9.67554C175.136 10.6919 175.877 12.7747 177.259 12.6389C178.203 12.5457 178.52 11.4977 178.687 10.7044C179.175 8.37512 178.282 6.1192 176.719 4.43791C178.686 1.86275 182.122 4.31168 182.432 7.20314C182.729 9.98084 181.279 12.8327 179.675 15.0218C178.134 17.1251 176.06 18.8864 173.735 20.2719ZM196.936 7.77043C197.068 7.08132 197.071 6.51477 197.254 5.91006C197.637 6.43478 199.569 10.5246 198.044 10.6472C196.521 10.7683 196.879 8.06838 196.936 7.77043ZM189.799 12.2353C188.684 9.80103 187.31 4.71165 190.985 3.6424C192.915 3.08099 194.953 3.69891 196.383 4.95897C195.95 6.05024 195.743 7.2457 195.798 8.43971C195.848 9.51116 196.429 11.9161 197.869 11.9718C202.215 12.1421 199.289 5.3259 198.106 4.104C198.189 3.98218 198.273 3.86108 198.365 3.74513C200.101 1.55453 203.672 1.09073 205.629 3.25345C209.744 7.80198 203.203 15.4115 199.885 18.4534C199.031 19.2357 198.107 19.927 197.132 20.5354C193.985 18.4695 191.343 15.6096 189.799 12.2353ZM210.183 16.4984C209.566 13.9592 211.378 12.3461 212.582 12.5971C213.265 12.7395 214.07 13.2693 214.76 14.2483C213.337 16.5901 213.687 19.9732 214.921 22.009C214.971 22.0912 215.028 22.1624 215.08 22.2401C212.015 20.6506 210.735 18.7704 210.183 16.4984ZM215.255 18.107C215.206 17.3364 215.269 16.444 215.5 15.625C215.708 16.1307 215.891 16.6906 216.026 17.3408C216.453 19.403 216.516 20.9625 216.51 21.7727C215.71 20.7379 215.339 19.4162 215.255 18.107ZM215.943 14.5536C216.436 13.6876 217.223 13.0675 218.42 13.0601C221.341 13.0411 221.155 16.5028 220.098 18.2919C219.342 19.5711 218.331 20.6564 217.169 21.5664C217.222 19.7743 216.85 16.8609 215.943 14.5536ZM233.619 5.91006C234.501 6.83254 235.168 7.91426 235.414 9.04516C235.487 9.38641 235.761 10.3874 235.475 10.965C235.042 11.8375 234.07 11.6159 233.686 10.6296C233.579 10.3522 233.397 9.75553 233.349 9.4796C233.148 8.31494 233.231 7.04756 233.619 5.91006ZM231.388 20.2719C229.789 19.2115 228.343 17.9125 227.128 16.3633C225.541 14.3393 224.394 11.8764 223.958 9.35044C223.726 8.01332 223.67 6.54999 224.293 5.30535C225.176 3.54112 227.241 2.91219 229.117 3.29894C230.363 3.55579 231.686 4.23242 232.806 5.15563C232.325 6.62117 232.298 8.31201 232.58 9.67554C232.789 10.6919 233.529 12.7747 234.912 12.6389C235.856 12.5457 236.173 11.4977 236.34 10.7044C236.828 8.37512 235.935 6.1192 234.372 4.43791C236.339 1.86275 239.775 4.31168 240.085 7.20314C240.382 9.98084 238.932 12.8327 237.328 15.0218C235.787 17.1251 233.713 18.8864 231.388 20.2719ZM254.589 7.77043C254.721 7.08132 254.723 6.51477 254.906 5.91006C255.29 6.43478 257.222 10.5246 255.697 10.6472C254.174 10.7683 254.532 8.06838 254.589 7.77043ZM247.452 12.2353C246.337 9.80103 244.963 4.71165 248.638 3.6424C250.568 3.08099 252.606 3.69891 254.036 4.95897C253.603 6.05024 253.396 7.2457 253.451 8.43971C253.501 9.51116 254.082 11.9161 255.522 11.9718C259.868 12.1421 256.942 5.3259 255.759 4.104C255.842 3.98218 255.926 3.86108 256.018 3.74513C257.754 1.55453 261.325 1.09073 263.282 3.25345C267.397 7.80198 260.856 15.4115 257.538 18.4534C256.684 19.2357 255.76 19.927 254.785 20.5354C251.638 18.4695 248.996 15.6096 247.452 12.2353ZM274.367 21.4241C273.895 21.0278 273.454 20.6095 273.054 20.1714C272.078 19.0999 271.289 17.7797 271.089 16.3332C270.986 15.5847 270.985 14.6688 271.287 13.9555C271.812 12.7204 273.23 12.3747 274.332 13.102C276.816 14.74 276.656 18.3859 275.092 20.5603C274.869 20.8715 274.625 21.1577 274.367 21.4241Z" fill="white"/>
</svg>
