<svg width="57" height="62" viewBox="0 0 57 62" fill="none" xmlns="http://www.w3.org/2000/svg">
<path d="M35.7286 18.2144C35.7399 18.2132 35.7506 18.2114 35.7612 18.2102C35.7292 18.2262 35.712 18.2322 35.7286 18.2144Z" fill="black"/>
<path d="M0.263063 22.3215C0.729957 22.449 0.856918 22.4063 0.856918 22.4063C9.59621 21.2186 10.8753 29.1718 13.8356 36.3799C15.7619 41.0702 17.8615 43.2872 22.9107 44.1676C26.5308 44.7989 31.3041 44.9715 33.8338 47.9396C36.2329 50.7552 37.2705 54.396 38.3959 57.8387C38.6724 58.6847 38.985 61.1906 40.2724 61.257C41.3325 61.3116 41.8991 60.5042 41.965 59.781C42.1774 57.4477 40.7974 55.3541 41.1949 55.061C41.6209 54.7466 42.0688 55.296 42.7706 55.5422C44.2276 56.0536 46.7081 56.8598 47.9468 55.7083C48.9375 54.7869 48.6053 53.0861 47.9901 52.0378C47.7741 51.67 46.0371 49.8807 45.7316 49.3812C46.0679 49.6962 48.3235 49.806 48.7952 49.8113C51.8065 49.8421 55.6758 47.0568 53.1153 44.3634C52.6501 43.874 51.7709 43.55 51.1284 43.448C50.9042 43.4124 50.2979 43.3727 49.4584 43.4581C50.9 42.8832 52.8857 41.1895 53.3342 40.7332C56.552 37.4597 57.4959 31.0673 53.1194 31.918C52.1631 32.1037 50.9926 33.3881 50.3637 33.8497C49.1386 34.749 47.8424 35.5541 46.4921 36.2524C42.6585 38.2338 37.6763 40.051 33.4393 38.3863C33.4256 38.381 33.4114 38.3828 33.3971 38.3798V38.324C35.3584 38.4978 37.4966 38.2368 39.3665 37.6815C40.7007 37.4246 43.2654 36.7317 46.2014 34.9098C49.9532 32.5813 48.527 29.6897 47.5214 29.2015C49.0764 28.0779 50.3845 26.5146 50.7458 24.6126C51.1889 22.2794 49.1772 22.1346 47.3239 22.8281C49.2413 20.5269 50.9048 18.1366 51.3396 15.1098C51.8148 11.8018 50.1335 7.27111 46.4696 6.31003C46.1712 6.23172 46.3159 6.47436 46.2922 6.76328C46.0317 9.9289 44.6062 12.8412 42.1536 14.8968C40.4836 16.2969 37.9278 17.1322 35.8977 17.4852C36.7039 16.8914 37.8561 15.2908 37.1946 14.3475C36.6838 13.6184 35.957 13.6047 35.2564 13.8515C36.1226 11.9163 36.9158 9.67914 35.7458 7.99429C34.9355 6.82676 34.0218 7.46392 33.3823 8.19481C33.5526 5.16148 32.744 1.59718 30.1651 0.00843778C30.1081 -0.0265645 30.0375 0.0558984 30.0707 0.0992062C32.1216 2.76412 32.738 6.10773 31.9798 10.0256C31.8683 10.6017 32.633 10.6954 32.9569 10.3964C33.8296 9.59193 34.2004 8.53356 34.8791 9.8061C35.7625 11.4619 34.3428 13.314 33.5098 14.9461C33.2073 15.5388 33.6955 15.785 34.2004 15.2789C36.4916 14.0912 36.0751 16.612 35.4308 17.2301C34.939 18.0666 35.4462 17.1038 35.2404 17.3832C35.225 17.4312 35.2119 17.4728 35.2012 17.5131C33.9856 17.6496 30.2475 17.5191 29.0248 17.5695C25.0541 17.7326 21.3884 18.1633 20.1615 22.2877C19.8376 23.3769 19.6525 25.8567 17.5921 24.9727C17.4854 22.49 17.7956 20.7304 18.6736 18.5027C19.802 15.6378 22.0167 13.2322 24.2693 11.2086C27.1851 8.58932 30.1164 5.15911 29.958 0.93926C29.9556 0.875188 29.8661 0.885274 29.8625 0.943413C29.4899 6.86888 22.6514 10.55 19.522 14.8541C17.6633 17.4105 16.0242 21.4043 17.063 24.6399C16.3421 23.9114 15.6184 22.0106 15.142 21.3212C13.911 19.5379 12.3964 17.9035 10.2785 17.2153C8.62623 16.6784 7.00841 16.8392 5.55493 17.7961C3.46962 19.1695 2.59457 21.5989 0.0916102 22.0231C0.09339 22.0248 -0.203831 22.1945 0.263063 22.3215ZM1.56823 21.8997C2.43083 21.4375 3.1635 20.7161 3.94897 19.9734C5.44102 18.5632 7.02087 17.2284 9.24856 17.6727C11.2698 18.0755 12.7909 19.5171 13.9691 21.11C14.9444 22.4283 16.4632 26.9643 18.4707 26.8682C19.8388 26.8029 20.1277 25.4046 20.3876 24.3457C21.9544 17.9634 29.2532 18.7821 35.1199 18.2731C35.4456 18.2416 35.639 18.231 35.7719 18.2049C35.7684 18.2066 35.7642 18.209 35.7613 18.2102C37.0445 18.072 38.2452 17.8542 39.2793 17.4579C43.584 15.8087 46.3343 12.4787 46.8095 6.64878C49.9093 7.96818 50.8128 12.3678 50.1371 15.2059C49.2668 18.8622 46.5698 22.5665 43.5828 24.8025C42.9468 25.2468 43.4161 26.3022 44.093 25.8211C44.3107 25.6663 44.5237 25.5061 44.7337 25.3418C45.6556 24.6726 46.8095 23.6266 48.5074 23.3549C50.9522 22.964 48.7204 26.5734 48.0322 27.2936C47.4396 27.9141 46.1071 28.6729 45.3839 29.0591C43.2885 30.1821 42.4105 30.0997 41.5805 30.3494C41.0205 30.5185 40.979 30.9474 41.6766 30.9326C42.7368 30.9101 43.8408 30.6817 44.8986 30.2883C45.7013 30.1744 46.5687 30.1738 46.746 30.6562C47.0605 31.5099 46.6713 33.3424 43.5935 34.8944C43.3401 35.0119 43.0554 35.143 42.7279 35.2937C42.6816 35.3132 42.6407 35.3334 42.5932 35.3524L42.5719 35.3648C42.2254 35.5238 41.8493 35.6965 41.4138 35.8952C38.4986 37.2253 35.289 37.5724 33.4701 37.6566C32.6811 37.6649 31.6197 37.6329 31.1238 37.4288C30.4302 37.1434 31.4269 38.9078 35.0167 39.4791C39.1559 40.3192 43.8699 38.6806 47.3951 36.7863C48.6142 36.1313 49.7847 35.3921 50.8982 34.5711C51.2162 34.3367 52.0723 33.47 52.3636 33.4136C53.4196 32.7563 54.7556 32.8625 54.8262 34.0466C54.9004 34.7372 54.8488 35.4153 54.6726 36.0797C53.9547 39.8143 51.0092 42.6168 47.3725 43.4913C47.1411 43.5471 47.0468 43.9564 47.3304 44.0068C48.3757 44.1949 51.0157 43.1597 52.3879 44.8813C53.7601 46.6029 50.8739 48.2831 50.8739 48.2831C49.8879 48.7885 49.1381 49.0751 48.0316 49.1314C46.8973 49.1901 45.9879 48.9463 44.9236 48.5898C44.694 48.5126 44.4507 48.868 44.6346 49.0418C45.0642 49.4488 45.4919 49.8552 45.8929 50.2912C46.9667 51.4576 47.8186 52.7912 47.1411 54.4856C46.7454 55.4745 45.5803 55.3013 43.6854 55.1382C42.3838 55.026 42.1002 54.7258 41.0697 53.8971C40.8574 53.7262 40.5922 53.9208 40.6076 54.17C40.6622 55.0432 40.7156 55.9165 40.7672 56.7898C40.7951 57.2549 40.8698 59.2577 39.8002 59.059C39.3683 58.9789 38.4481 56.0381 38.2132 55.3316C37.372 52.8019 36.4138 50.2651 34.7806 48.1276C33.4778 46.4226 31.8119 44.9952 29.7705 44.2673C26.7301 43.184 23.5182 43.5388 20.5804 41.9862C14.4835 38.7636 14.0551 32.188 10.7863 26.8593C8.57283 23.2493 5.49916 21.4595 1.56823 21.8997Z" fill="black"/>
<path d="M6.0639 19.2822C6.08111 19.2632 6.10365 19.2495 6.1256 19.2353C6.16951 19.205 6.21459 19.1801 6.26383 19.1594C6.42105 19.0039 6.65183 18.9274 6.87312 18.9351C7.2 18.947 7.26882 19.068 7.29195 19.348C7.29433 19.3771 7.25813 19.3836 7.23796 19.3765C7.21542 19.3688 7.17092 19.37 7.12702 19.3711C7.37322 19.7342 7.35899 20.3393 6.85472 20.3684C6.76692 20.3738 6.68386 20.3548 6.60377 20.3263C6.5308 20.3524 6.45487 20.3702 6.37656 20.369C6.29706 20.3678 6.1873 20.337 6.14755 20.2587C5.98203 19.9347 5.70201 19.6357 6.01169 19.3213C6.02711 19.3065 6.04729 19.2964 6.0639 19.2822Z" fill="black"/>
</svg>
