<svg width="26" height="26" viewBox="0 0 26 26" fill="none" xmlns="http://www.w3.org/2000/svg">
<path d="M0.37006 0.593074C0.594624 0.245362 1.05838 0.145357 1.40625 0.369466C1.40644 0.369587 1.40698 0.369938 1.00009 0.999968L0.593196 1.63C0.24524 1.40528 0.145339 0.941029 0.37006 0.593074Z" fill="white"/>
<path fill-rule="evenodd" clip-rule="evenodd" d="M7.75009 21.7575V4.2424C6.29317 3.95602 5.02961 3.5811 3.9877 3.20553C2.9144 2.81864 2.07487 2.43056 1.49955 2.13658C1.21181 1.98955 0.989918 1.86593 0.837659 1.77759C0.761521 1.73341 0.702769 1.69804 0.661874 1.67295L0.613975 1.64321L0.600174 1.63447L0.595829 1.63169L0.593196 1.63C0.592938 1.62983 0.593196 1.63 1.00009 0.999968L1.40625 0.369466L1.4133 0.373934L1.44623 0.394366C1.47697 0.413224 1.5252 0.442306 1.59044 0.480161C1.72095 0.55588 1.91942 0.666639 2.18208 0.800859C2.70756 1.06937 3.48901 1.43129 4.49636 1.79441C6.5115 2.5208 9.42496 3.24997 13.0001 3.24997C16.5752 3.24997 19.4887 2.5208 21.5038 1.79441C22.5112 1.43129 23.2926 1.06937 23.8181 0.800859C24.0808 0.666639 24.2792 0.55588 24.4097 0.480161C24.475 0.442306 24.5232 0.413224 24.5539 0.394366L24.5869 0.373934L24.5932 0.369938C24.9411 0.145544 25.4055 0.245248 25.6301 0.593074C25.8548 0.941029 25.7549 1.40528 25.407 1.63L25.0001 0.999968C25.407 1.63 25.4072 1.62983 25.407 1.63L25.4044 1.63169L25.4 1.63447L25.3862 1.64321L25.3383 1.67295C25.2974 1.69804 25.2387 1.73341 25.1625 1.77759C25.0103 1.86593 24.7884 1.98955 24.5006 2.13658C23.9253 2.43056 23.0858 2.81864 22.0125 3.20553C20.9706 3.5811 19.707 3.95602 18.2501 4.2424V21.7575C19.707 22.0439 20.9706 22.4188 22.0125 22.7944C23.0858 23.1813 23.9253 23.5694 24.5006 23.8634C24.7884 24.0104 25.0103 24.134 25.1625 24.2223C25.2387 24.2665 25.2974 24.3019 25.3383 24.327L25.3862 24.3567L25.4 24.3655L25.4044 24.3682L25.4059 24.3692C25.4061 24.3694 25.407 24.3699 25.0001 25L25.4059 24.3692C25.7538 24.5939 25.8548 25.0589 25.6301 25.4069C25.4055 25.7547 24.9415 25.8546 24.5936 25.6302L24.5869 25.626L24.5539 25.6056C24.5232 25.5867 24.475 25.5576 24.4097 25.5198C24.2792 25.4441 24.0808 25.3333 23.8181 25.1991C23.2926 24.9306 22.5112 24.5686 21.5038 24.2055C19.4887 23.4791 16.5752 22.75 13.0001 22.75C9.42496 22.75 6.5115 23.4791 4.49636 24.2055C3.48901 24.5686 2.70756 24.9306 2.18208 25.1991C1.91942 25.3333 1.72095 25.4441 1.59044 25.5198C1.5252 25.5576 1.47697 25.5867 1.44623 25.6056L1.4133 25.626L1.40698 25.63L1.00009 25C0.593196 24.3699 0.593436 24.3698 0.593693 24.3696L0.595829 24.3682L0.600174 24.3655L0.613975 24.3567L0.661874 24.327C0.702769 24.3019 0.761521 24.2665 0.837659 24.2223C0.989918 24.134 1.21181 24.0104 1.49955 23.8634C2.07487 23.5694 2.9144 23.1813 3.9877 22.7944C5.02961 22.4188 6.29317 22.0439 7.75009 21.7575ZM9.25009 21.5067C10.4055 21.347 11.6592 21.25 13.0001 21.25C14.341 21.25 15.5947 21.347 16.7501 21.5067V4.49321C15.5947 4.65295 14.341 4.74997 13.0001 4.74997C11.6592 4.74997 10.4055 4.65295 9.25009 4.49321V21.5067Z" fill="white"/>
<path d="M1.40698 25.63C1.40685 25.6301 1.40711 25.6299 1.40698 25.63V25.63Z" fill="white"/>
<path d="M1.40698 25.63C1.05907 25.8544 0.594697 25.7547 0.37006 25.4069C0.145339 25.0589 0.245738 24.5943 0.593693 24.3696L1.00009 25C1.40698 25.63 1.40717 25.6299 1.40698 25.63Z" fill="white"/>
</svg>
