<svg width="29" height="30" viewBox="0 0 29 30" fill="none" xmlns="http://www.w3.org/2000/svg">
<path d="M16.5668 3.95381C18.2618 1.94705 19.9454 1.10027 21.281 0.777259C21.9431 0.617129 22.5046 0.589358 22.9198 0.603034C23.1273 0.609869 23.2965 0.627002 23.4199 0.642286C23.4686 0.648321 23.5119 0.654303 23.5421 0.658485L23.5607 0.661053L23.5672 0.661926C24.5619 0.673433 25.7067 1.13144 26.6034 1.87459C27.523 2.63668 28.275 3.77938 28.275 5.2005C28.275 6.41617 28.0623 7.52834 27.4507 8.45509C26.8319 9.39282 25.8683 10.0455 24.5533 10.4606C24.156 10.5861 23.7327 10.364 23.6079 9.9647C23.4831 9.56536 23.704 9.13995 24.1013 9.01452C25.1816 8.67348 25.8147 8.19189 26.1939 7.61726C26.5804 7.03165 26.7669 6.25337 26.7669 5.2005C26.7669 4.35308 26.3212 3.60533 25.644 3.0441C24.9555 2.47349 24.1222 2.17749 23.5289 2.17749C23.4579 2.17749 23.3789 2.16609 23.3606 2.16345L23.3574 2.16301L23.3327 2.1596C23.3029 2.15549 23.2725 2.15129 23.2354 2.1467C23.1442 2.1354 23.0216 2.12299 22.8704 2.11801C22.5681 2.10806 22.1442 2.12755 21.6338 2.25098C20.6245 2.4951 19.215 3.16068 17.7164 4.93482C16.6778 6.16446 15.9183 7.82323 15.4189 9.45065C14.9195 11.0781 14.702 12.6022 14.702 13.5185V28.6421C14.702 29.0607 14.3644 29.4 13.948 29.4C13.5315 29.4 13.1939 29.0607 13.1939 28.6421V13.4842C13.1939 12.5602 12.9875 11.0284 12.5152 9.39477C12.0425 7.75996 11.3239 6.09533 10.3429 4.8629C8.92833 3.08563 7.6046 2.42703 6.66916 2.18693C6.19538 2.06533 5.80287 2.04635 5.52413 2.05609C5.38461 2.06097 5.27151 2.07311 5.18716 2.0842C5.15274 2.08872 5.12476 2.09283 5.09677 2.09693L5.07301 2.1004L5.07097 2.10071C5.05623 2.103 4.97401 2.11576 4.89932 2.11576C4.36412 2.11576 3.59173 2.40175 2.9452 2.97035C2.31293 3.5264 1.88311 4.27935 1.88311 5.14734C1.88311 6.20922 2.06078 6.99676 2.42829 7.58777C2.7862 8.16335 3.37819 8.63883 4.38372 8.97571C4.7788 9.10807 4.99232 9.53728 4.86063 9.93438C4.72893 10.3315 4.3019 10.5461 3.90682 10.4137C2.65018 9.9927 1.73407 9.33134 1.14941 8.39113C0.574352 7.46634 0.375 6.35915 0.375 5.14734C0.375 3.74165 1.07626 2.59986 1.9521 1.8296C2.80114 1.08291 3.89409 0.61377 4.85676 0.600273L7.0423 0.718275C8.32152 1.0466 9.91897 1.90379 11.5206 3.91599C12.6714 5.3618 13.4609 7.23402 13.9634 8.97175C13.9673 8.98538 13.9712 8.999 13.9751 9.01262C13.976 9.00972 13.9769 9.00682 13.9778 9.00392C14.511 7.26643 15.3483 5.39636 16.5668 3.95381Z" fill="white"/>
</svg>
